<svg width="394" height="250" viewBox="0 0 394 250" fill="none" xmlns="http://www.w3.org/2000/svg">
<g opacity="0.04">
<ellipse cx="74" cy="27" rx="76" ry="48" stroke="white"/>
<ellipse cx="57" cy="34" rx="112" ry="61" stroke="white"/>
<path d="M217 227.966C220.667 214.133 235.3 183.066 264.5 169.466C301 152.466 283.5 125.466 280.5 122.466C277.5 119.466 233.5 77.9662 282 64.4662C320.8 53.6662 359.5 64.9662 374 71.9662L383 84.9662L372.5 87.9662C329.5 79.4662 254.7 76.9662 299.5 134.966C318 158.917 255 187.966 255 232.466L382 233.466L383 117.466L370 119.466C350.333 119.133 311 115.566 311 103.966C311 89.4662 351 90.4662 374 97.9662C392.4 103.966 393.667 126.133 392 136.466L390.5 240.466L217 227.966Z" stroke="white"/>
<ellipse cx="80" cy="205" rx="112" ry="61" stroke="white"/>
<ellipse cx="65.5" cy="219" rx="92.5" ry="47" stroke="white"/>
</g>
</svg>
