<svg width="20" height="20" viewBox="0 0 20 20" fill="none" xmlns="http://www.w3.org/2000/svg">
<path d="M15.4083 14.941C15.1699 14.2077 14.4824 13.6668 13.6666 13.6668H12.7499V10.9168C12.7499 10.6737 12.6533 10.4406 12.4814 10.2686C12.3095 10.0967 12.0764 10.0002 11.8333 10.0002H6.33325V8.16683H8.16659C8.4097 8.16683 8.64286 8.07025 8.81477 7.89834C8.98667 7.72644 9.08325 7.49328 9.08325 7.25016V5.41683H10.9166C11.4028 5.41683 11.8691 5.22368 12.2129 4.87986C12.5568 4.53604 12.7499 4.06973 12.7499 3.5835V3.20766C13.8467 3.64983 14.82 4.35118 15.5865 5.25168C16.353 6.15218 16.8899 7.225 17.1512 8.37831C17.4124 9.53163 17.3904 10.7311 17.0868 11.874C16.7833 13.0169 16.2073 14.0693 15.4083 14.941M9.08325 17.2693C5.46242 16.8202 2.66659 13.7402 2.66659 10.0002C2.66659 9.43183 2.73992 8.88183 2.85909 8.35933L7.24992 12.7502V13.6668C7.24992 14.1531 7.44307 14.6194 7.78689 14.9632C8.13071 15.307 8.59702 15.5002 9.08325 15.5002M9.99992 0.833496C8.79613 0.833496 7.60414 1.0706 6.49199 1.53127C5.37984 1.99194 4.36931 2.66715 3.51811 3.51835C1.79902 5.23743 0.833252 7.56901 0.833252 10.0002C0.833252 12.4313 1.79902 14.7629 3.51811 16.482C4.36931 17.3332 5.37984 18.0084 6.49199 18.4691C7.60414 18.9297 8.79613 19.1668 9.99992 19.1668C12.4311 19.1668 14.7626 18.2011 16.4817 16.482C18.2008 14.7629 19.1666 12.4313 19.1666 10.0002C19.1666 8.79638 18.9295 7.60438 18.4688 6.49223C18.0081 5.38008 17.3329 4.36955 16.4817 3.51835C15.6305 2.66715 14.62 1.99194 13.5079 1.53127C12.3957 1.0706 11.2037 0.833496 9.99992 0.833496V0.833496Z" fill="#BDBDBD"/>
</svg>
