<svg width="339" height="368" viewBox="0 0 339 368" fill="none" xmlns="http://www.w3.org/2000/svg">
<path d="M237 311.217V329.682C237 330.27 237.234 330.834 237.651 331.25C238.068 331.666 238.634 331.9 239.223 331.9H242.917L243.017 341.37L253.218 331.9H275.239C275.828 331.896 276.391 331.662 276.808 331.246C277.224 330.831 277.459 330.269 277.462 329.682V311.217C277.459 310.63 277.224 310.068 276.808 309.653C276.391 309.238 275.828 309.003 275.239 309H239.223C238.634 309 238.068 309.234 237.651 309.649C237.234 310.065 237 310.629 237 311.217Z" fill="#2E364C"/>
<path d="M263.511 322.253L263.866 321.916L264.043 321.741C264.281 321.54 264.502 321.319 264.702 321.08L264.841 320.943C265.089 320.631 265.314 320.301 265.512 319.956C265.747 319.522 265.938 319.067 266.082 318.596C266.117 318.485 266.147 318.373 266.171 318.259C266.436 317.163 266.379 316.016 266.006 314.951L265.867 314.614C265.461 313.726 264.772 312.994 263.904 312.529C262.745 311.994 261.428 311.89 260.197 312.236C258.966 312.582 257.903 313.356 257.205 314.414C256.506 313.358 255.443 312.586 254.213 312.24C252.982 311.894 251.667 311.996 250.507 312.529C249.666 312.991 249 313.71 248.608 314.576C248.608 314.689 248.506 314.801 248.468 314.913C248.084 315.976 248.023 317.125 248.291 318.221C248.326 318.332 248.356 318.445 248.38 318.558C248.523 319.032 248.718 319.488 248.962 319.919C249.152 320.269 249.377 320.599 249.633 320.905L249.76 321.03C249.972 321.274 250.2 321.503 250.444 321.717L250.621 321.879L250.963 322.216L254.445 325.524L254.8 325.861L257.269 328.22L259.738 325.861L260.093 325.524L263.511 322.253Z" fill="#475271"/>
<path d="M62.7686 167.364V196.009C62.7686 196.921 62.4052 197.796 61.7583 198.441C61.1115 199.086 60.2341 199.448 59.3193 199.448H53.59L53.4342 214.14L37.6104 199.448H3.44909C2.53586 199.443 1.66154 199.079 1.01579 198.435C0.370029 197.791 0.00496292 196.919 -0.000152588 196.009V167.364C0.00496292 166.454 0.370029 165.582 1.01579 164.938C1.66154 164.294 2.53586 163.93 3.44909 163.925H59.3193C60.2341 163.925 61.1115 164.287 61.7583 164.932C62.4052 165.577 62.7686 166.452 62.7686 167.364Z" fill="#2E364C"/>
<path d="M21.6392 184.484L21.0892 183.961L20.8142 183.69C20.4446 183.377 20.1029 183.034 19.7927 182.664L19.5767 182.451C19.1916 181.967 18.8437 181.456 18.5356 180.921C18.1714 180.248 17.8753 179.541 17.6516 178.81C17.5966 178.638 17.5507 178.464 17.5141 178.287C17.102 176.588 17.1906 174.807 17.7695 173.156L17.9856 172.633C18.6149 171.256 19.6843 170.12 21.0303 169.399C22.8287 168.569 24.8712 168.407 26.7809 168.944C28.6906 169.482 30.3389 170.682 31.4216 172.323C32.5072 170.685 34.1554 169.488 36.064 168.95C37.9727 168.413 40.0137 168.573 41.8129 169.399C43.1172 170.116 44.1509 171.23 44.7594 172.575C44.7594 172.749 44.9165 172.923 44.9755 173.098C45.5708 174.746 45.6663 176.529 45.2504 178.229C45.1954 178.401 45.1496 178.576 45.113 178.752C44.8913 179.486 44.5882 180.194 44.2093 180.863C43.9152 181.406 43.5664 181.918 43.1682 182.393L42.9719 182.586C42.6434 182.965 42.289 183.321 41.9111 183.651L41.6361 183.903L41.1057 184.426L35.7038 189.558L35.1538 190.08L31.3233 193.74L27.4929 190.08L26.9429 189.558L21.6392 184.484Z" fill="#475271"/>
<path d="M58.0558 85.1981C55.8862 84.9659 53.8321 84.1006 52.148 82.7094C50.464 81.3181 49.2238 79.462 48.5812 77.371C46.681 71.5029 49.5935 65.2875 55.0811 63.4888C60.5687 61.6901 66.5714 65.0115 68.4716 70.8885C69.1881 72.9806 69.2692 75.2388 68.7049 77.3772C68.1406 79.5156 66.9562 81.4379 65.3016 82.9007C81.3648 80.3006 86 97.2282 86 97.2282L49.7889 109C49.7889 109 43.5731 92.3752 58.0558 85.1981Z" fill="#282F42"/>
<path d="M297.469 153.254C296.22 150.956 295.665 148.349 295.872 145.756C296.079 143.163 297.039 140.697 298.634 138.665C303.043 132.867 311.06 131.59 316.536 135.808C322.013 140.027 322.865 148.176 318.447 153.98C316.902 156.086 314.763 157.675 312.303 158.547C309.842 159.418 307.17 159.533 304.624 158.876C318.066 173.006 304.772 188.896 304.772 188.896L268.73 160.995C268.73 160.995 280.656 143.745 297.469 153.254Z" fill="#282F42"/>
<path d="M332 366.237C332 366.835 262.318 367.274 176.382 367.274C90.4452 367.274 20.75 366.835 20.75 366.237C20.75 365.638 90.4175 365.199 176.382 365.199C262.346 365.199 332 365.678 332 366.237Z" fill="#202533"/>
<path d="M65.602 306.58C68.717 304.973 72.388 304.767 75.8457 305.338C77.7041 305.643 79.6538 306.199 80.9105 307.623C82.1671 309.047 82.4337 311.477 80.9638 312.68C80.0259 313.311 78.8978 313.597 77.7726 313.487C75.0613 313.487 72.0605 312.977 69.8975 314.607C68.6561 315.536 67.8411 317.082 66.3636 317.539C65.6298 317.705 64.8621 317.628 64.1756 317.32C63.4891 317.013 62.9207 316.491 62.5555 315.833C61.8495 314.476 61.694 312.9 62.1214 311.431C62.2883 310.409 62.6892 309.439 63.293 308.597C63.8968 307.756 64.6871 307.065 65.602 306.58Z" fill="#3891E3"/>
<path d="M58.4658 292.802C60.3698 295.521 64.0713 294.622 65.7925 292.962C67.5138 291.301 68.2297 288.887 68.8923 286.595C70.4155 281.347 71.9388 275.848 70.8039 270.502C70.5304 268.884 69.8192 267.372 68.7476 266.13C68.2045 265.517 67.5094 265.059 66.7325 264.801C65.9555 264.543 65.1243 264.494 64.3226 264.66C62.4566 265.147 61.2761 266.945 60.4536 268.719C57.977 273.854 56.6761 279.477 56.6455 285.178C56.6455 287.828 56.9425 290.608 58.4429 292.794" fill="#3891E3"/>
<path d="M53.2332 296.701C55.2971 294.249 55.6932 290.669 54.7564 287.562C53.7122 284.506 51.8466 281.797 49.3641 279.732C46.5481 277.223 43.2706 275.285 39.7145 274.028C38.3357 273.467 36.853 273.207 35.3656 273.266C34.6238 273.31 33.9038 273.534 33.2681 273.919C32.6324 274.304 32.1002 274.838 31.7175 275.475C30.6969 277.417 31.6718 279.77 32.7304 281.689C34.5895 285.072 36.7107 288.303 39.0747 291.354C40.9788 293.807 43.157 296.229 46.0587 297.333C48.9605 298.437 51.9689 298.316 53.5073 296.305" fill="#3891E3"/>
<path d="M58.3355 333.852C58.4365 333.445 58.4952 333.029 58.5107 332.611C58.5945 331.712 58.7087 330.585 58.8382 329.237C59.0079 327.575 59.2621 325.922 59.5998 324.286C60.0454 322.294 60.649 320.341 61.4048 318.445C62.1419 316.551 63.1446 314.771 64.3828 313.159C65.403 311.843 66.7039 310.771 68.1908 310.021C69.1902 309.525 70.2623 309.19 71.3668 309.031C71.7809 309.02 72.1923 308.961 72.593 308.856C72.1779 308.81 71.759 308.81 71.3439 308.856C70.1966 308.94 69.0741 309.232 68.0309 309.717C66.4557 310.438 65.0709 311.518 63.9867 312.87C62.7149 314.507 61.6886 316.321 60.9403 318.254C60.1754 320.179 59.5791 322.167 59.1581 324.195C58.8379 325.851 58.6166 327.524 58.4955 329.206C58.3888 330.638 58.3508 331.796 58.3355 332.603C58.2866 333.018 58.2866 333.437 58.3355 333.852Z" fill="#202533"/>
<path d="M58.5636 331.255C58.6026 331.065 58.6155 330.87 58.6017 330.677C58.6017 330.25 58.6017 329.702 58.6017 329.039C58.6017 327.615 58.6017 325.551 58.6779 323.007C58.7997 317.919 59.2415 312.443 60.0869 304.728C60.8485 297.47 61.9681 289.016 63.1333 283.525C63.3771 282.276 63.6208 281.149 63.8493 280.166C64.0777 279.184 64.2605 278.331 64.4357 277.638C64.6109 276.945 64.7251 276.465 64.8241 276.046C64.8802 275.86 64.9135 275.668 64.9231 275.475C64.8389 275.648 64.7725 275.829 64.7251 276.015C64.5956 276.427 64.4433 276.952 64.2453 277.592C64.0473 278.232 63.8188 279.115 63.5751 280.098C63.3314 281.08 63.0419 282.2 62.8135 283.449C61.412 289.946 60.3544 296.513 59.6451 303.121C58.7998 310.859 58.4189 317.904 58.3809 323.007C58.3809 325.558 58.3809 327.622 58.4723 329.054C58.518 329.717 58.5484 330.258 58.5713 330.692C58.5503 330.879 58.5478 331.068 58.5636 331.255Z" fill="#202533"/>
<path d="M58.6034 317.66C58.6517 317.09 58.6517 316.516 58.6034 315.946C58.5062 314.392 58.3308 312.844 58.0779 311.308C57.7001 309.024 57.1915 306.763 56.5547 304.537C55.8188 301.801 54.8742 299.125 53.7291 296.533C51.7652 291.75 48.9499 287.363 45.4198 283.585C44.8056 282.941 44.1519 282.336 43.4625 281.773C43.1654 281.521 42.8989 281.262 42.6247 281.064L41.8631 280.546C41.406 280.199 40.9221 279.888 40.416 279.617C42.0798 280.923 43.6595 282.332 45.1457 283.837C48.5633 287.64 51.3042 292.001 53.2492 296.731C54.3726 299.308 55.3241 301.956 56.0977 304.659C56.8593 307.15 57.3315 309.434 57.7047 311.361C58.0779 313.288 58.2607 314.865 58.3825 315.931C58.4094 316.512 58.4832 317.091 58.6034 317.66Z" fill="#202533"/>
<path d="M45.4648 341.636L46.8281 360.288H70.7962L72.1595 341.636H45.4648Z" fill="#202533"/>
<path d="M75.0164 334.279H43.1504V341.629H75.0164V334.279Z" fill="#202533"/>
<path d="M43.1572 359.572V361.613H44.65H74.4901V359.572H43.1572Z" fill="#455A64"/>
<path d="M46.1193 365.2L44.6494 361.613H73.3471L71.6335 365.2H46.1193Z" fill="#455A64"/>
<path d="M71.709 347.729C71.709 347.729 71.709 347.798 71.5948 347.905C71.4805 348.011 71.3891 348.186 71.2368 348.377L69.8431 350.189L69.7821 350.266L69.7212 350.182L66.2711 345.414H66.4691L63.1104 350.189L63.0037 350.342L62.8895 350.197L58.8834 345.437H59.1119L58.891 345.719L55.3114 350.189L55.1972 350.342L55.0829 350.182C53.8644 348.468 52.7295 346.861 51.709 345.406H51.8994L47.741 350.189L47.6648 350.273L47.6115 350.189C47.0631 349.268 46.6214 348.537 46.3091 348.004L45.974 347.417C45.9296 347.355 45.8961 347.285 45.875 347.211C45.9263 347.268 45.9722 347.329 46.0121 347.394C46.1111 347.539 46.233 347.729 46.3777 347.958L47.7486 350.106H47.6191L51.709 345.307L51.8156 345.193L51.907 345.323L55.319 350.075H55.0906L58.6549 345.528L58.8758 345.254L58.99 345.109L59.1043 345.254L63.0951 350.022H62.8743L66.2711 345.277L66.3701 345.14L66.4691 345.277L69.8278 350.075H69.706L71.153 348.331C71.313 348.156 71.4424 348.004 71.5415 347.882L71.709 347.729Z" fill="#E0E0E0"/>
<path d="M72.4874 341.515C72.4874 341.591 66.4859 341.659 59.083 341.659C51.6801 341.659 45.709 341.591 45.709 341.515C45.709 341.438 51.7105 341.362 59.121 341.362C66.5316 341.362 72.4874 341.431 72.4874 341.515Z" fill="#455A64"/>
<path d="M73.6978 361.812C73.6978 361.895 67.1708 361.964 59.1281 361.964C51.0854 361.964 44.5508 361.895 44.5508 361.812C44.5508 361.728 51.0778 361.667 59.1281 361.667C67.1784 361.667 73.6978 361.736 73.6978 361.812Z" fill="#202533"/>
<path d="M223.427 0H117.408C110.299 0 104.536 8.26113 104.536 18.4517V248.186C104.536 258.376 110.299 266.637 117.408 266.637H223.427C230.536 266.637 236.299 258.376 236.299 248.186V18.4517C236.299 8.26113 230.536 0 223.427 0Z" fill="#1E2434"/>
<path d="M220.416 0H115.233C108.18 0 102.462 8.26113 102.462 18.4517V248.186C102.462 258.376 108.18 266.637 115.233 266.637H220.416C227.469 266.637 233.187 258.376 233.187 248.186V18.4517C233.187 8.26113 227.469 0 220.416 0Z" fill="#3891E3"/>
<path d="M121.655 20.75C120.527 20.75 119.424 20.4458 118.485 19.8757C117.547 19.3057 116.815 18.4956 116.384 17.5477C115.952 16.5998 115.839 15.5567 116.059 14.5505C116.279 13.5442 116.823 12.6199 117.621 11.8944C118.419 11.1689 119.435 10.6748 120.542 10.4747C121.649 10.2745 122.796 10.3772 123.839 10.7699C124.882 11.1625 125.773 11.8274 126.4 12.6805C127.027 13.5336 127.362 14.5365 127.362 15.5625C127.362 16.9383 126.761 18.2578 125.69 19.2306C124.62 20.2035 123.169 20.75 121.655 20.75ZM121.655 11.2982C120.725 11.2965 119.815 11.5458 119.04 12.0147C118.266 12.4835 117.662 13.1508 117.305 13.932C116.948 14.7131 116.854 15.573 117.035 16.4028C117.216 17.2325 117.664 17.9947 118.322 18.5928C118.98 19.1909 119.818 19.5981 120.731 19.7627C121.644 19.9273 122.59 19.8419 123.449 19.5174C124.308 19.1929 125.042 18.6439 125.558 17.9398C126.074 17.2358 126.348 16.4084 126.346 15.5625C126.339 14.4361 125.841 13.3582 124.962 12.5642C124.083 11.7702 122.895 11.3246 121.655 11.3246V11.2982Z" fill="#FAFAFA"/>
<path d="M137.745 20.75C136.719 20.7517 135.715 20.449 134.861 19.88C134.006 19.3111 133.34 18.5015 132.946 17.5538C132.552 16.606 132.448 15.5627 132.647 14.5559C132.847 13.549 133.34 12.6239 134.065 11.8975C134.79 11.1711 135.715 10.6762 136.721 10.4753C137.728 10.2744 138.771 10.3767 139.719 10.769C140.668 11.1614 141.479 11.8263 142.049 12.6796C142.619 13.5328 142.924 14.5361 142.924 15.5625C142.924 16.9368 142.379 18.2549 141.408 19.2275C140.437 20.2001 139.119 20.7477 137.745 20.75ZM137.745 11.2982C136.899 11.2965 136.072 11.5458 135.368 12.0147C134.664 12.4835 134.115 13.1508 133.79 13.932C133.466 14.7131 133.38 15.573 133.545 16.4028C133.71 17.2325 134.117 17.9947 134.715 18.5928C135.313 19.1909 136.075 19.5981 136.905 19.7627C137.735 19.9273 138.594 19.8419 139.376 19.5174C140.157 19.1929 140.824 18.6439 141.293 17.9398C141.762 17.2357 142.011 16.4084 142.009 15.5625C142 14.4368 141.547 13.3603 140.749 12.5668C139.95 11.7732 138.871 11.3269 137.745 11.3246V11.2982Z" fill="#FAFAFA"/>
<path d="M153.818 20.75C152.689 20.75 151.586 20.4458 150.647 19.8757C149.709 19.3057 148.978 18.4956 148.546 17.5477C148.114 16.5998 148.001 15.5567 148.221 14.5505C148.441 13.5442 148.985 12.6199 149.783 11.8944C150.581 11.1689 151.597 10.6748 152.704 10.4747C153.811 10.2745 154.959 10.3772 156.001 10.7699C157.044 11.1625 157.935 11.8274 158.562 12.6805C159.189 13.5336 159.524 14.5365 159.524 15.5625C159.524 16.9383 158.923 18.2578 157.853 19.2306C156.782 20.2035 155.331 20.75 153.818 20.75ZM153.818 11.2982C152.888 11.2982 151.978 11.549 151.205 12.019C150.432 12.4889 149.83 13.1568 149.474 13.9381C149.119 14.7194 149.026 15.579 149.208 16.4082C149.39 17.2373 149.839 17.9987 150.497 18.5959C151.156 19.1932 151.994 19.5995 152.907 19.7633C153.819 19.9272 154.764 19.8414 155.623 19.5166C156.482 19.1918 157.215 18.6428 157.731 17.9389C158.246 17.235 158.52 16.408 158.518 15.5625C158.508 14.4353 158.008 13.3574 157.128 12.5637C156.247 11.7699 155.058 11.3245 153.818 11.3246V11.2982Z" fill="#FAFAFA"/>
<rect x="102.462" y="29.0498" width="130.725" height="210.612" fill="#1A1E29"/>
<path d="M211.258 50.626H128.162C121.88 50.626 116.787 53.6951 116.787 57.4811V107.56C116.787 111.346 121.88 114.415 128.162 114.415H211.258C217.54 114.415 222.633 111.346 222.633 107.56V57.4811C222.633 53.6951 217.54 50.626 211.258 50.626Z" fill="#2E364D"/>
<path d="M128.723 126.564L210.693 126.564V120.489L128.723 120.489V126.564Z" fill="#252C3F"/>
<path d="M116.786 179.344L222.632 179.344V173.269L116.786 173.269V179.344Z" fill="#252C3F"/>
<path d="M116.786 191.494H178.861V185.419H116.786V191.494Z" fill="#252C3F"/>
<rect x="116.787" y="140.65" width="105.846" height="21.2629" rx="10.6315" fill="#3891E3"/>
<path d="M131.871 95.9414L136.198 101.558C136.198 101.558 138.293 104.786 136.666 105.478C135.229 106.084 134.294 104.275 134.294 104.275C134.294 104.275 133.377 100.156 131.594 101.16C131.344 101.307 131.776 104.232 132.019 105.712C132.103 106.255 132.394 106.745 132.832 107.079L137.574 110.714C138.455 111.388 139.502 111.812 140.603 111.942L142.291 112.141L143.684 114.911L151.351 111.787L145.294 103.894L142.014 98.8751C141.771 98.6627 141.48 98.5131 141.166 98.4391C140.853 98.3652 140.526 98.3693 140.214 98.451L139.461 98.6414L138.89 98.0789C138.727 97.9113 138.522 97.7913 138.296 97.7318C138.071 97.6723 137.833 97.6756 137.609 97.7414L137.142 97.8712L135.809 96.5645C135.385 96.1405 132.46 93.4145 131.915 93.6568C131.75 93.7967 131.617 93.97 131.524 94.1652C131.431 94.3605 131.381 94.5733 131.377 94.7894C131.373 95.0055 131.415 95.22 131.5 95.4186C131.585 95.6172 131.712 95.7955 131.871 95.9414Z" fill="#FFBE9D"/>
<path d="M140.568 101.272C140.435 101.052 140.287 100.841 140.127 100.64C139.702 100.185 139.14 99.8812 138.526 99.775C138.047 99.357 137.62 98.8835 137.254 98.3645C137.091 98.1599 136.96 97.9324 136.864 97.6895C137.032 97.8877 137.188 98.0958 137.332 98.3125C137.716 98.793 138.138 99.2415 138.595 99.6539C138.751 99.7058 138.924 99.7404 139.097 99.801C139.531 99.9629 139.913 100.238 140.205 100.597C140.322 100.746 140.421 100.909 140.499 101.082C140.532 101.141 140.555 101.206 140.568 101.272Z" fill="#EB996E"/>
<path d="M141.451 100.139C141.386 100.021 141.297 99.918 141.191 99.8358C141.07 99.7428 140.928 99.6802 140.777 99.6531C140.627 99.626 140.472 99.6353 140.326 99.6801H140.282L140.187 99.5849C139.808 99.2217 139.466 98.8216 139.166 98.3906C139.569 98.7245 139.942 99.0922 140.282 99.4897L140.378 99.5849H140.308C140.48 99.5283 140.665 99.5194 140.841 99.559C141.018 99.5986 141.181 99.6853 141.312 99.8099C141.451 99.9483 141.477 100.139 141.451 100.139Z" fill="#EB996E"/>
<path d="M132.675 340.681L129.967 365.5L143.328 367.231L146.098 342.377L132.675 340.681Z" fill="#81B1DE"/>
<path d="M136.666 365.422C136.778 365.422 137.402 360.005 138.051 353.307C138.7 346.609 139.132 341.148 139.02 341.14C138.907 341.131 138.293 346.557 137.644 353.255C136.995 359.953 136.553 365.414 136.666 365.422Z" fill="#202533"/>
<path d="M130.157 363.796L143.519 365.483L143.328 367.231L129.967 365.501L130.157 363.796Z" fill="#202533"/>
<path d="M144.212 359.287C144.212 359.287 144.143 359.071 143.927 358.707C143.617 358.21 143.263 357.74 142.871 357.305C142.281 356.653 141.603 356.088 140.854 355.626C139.551 354.813 138.021 354.44 136.49 354.562C134.958 354.683 133.506 355.293 132.348 356.301C131.908 356.695 131.526 357.15 131.214 357.651C130.998 358.006 130.911 358.223 130.937 358.24C131.42 357.618 131.956 357.039 132.538 356.509C134.001 355.338 135.866 354.788 137.73 354.977C139.6 355.235 141.325 356.123 142.62 357.496C143.684 358.543 144.152 359.33 144.212 359.287Z" fill="#202533"/>
<g opacity="0.3">
<path d="M145.311 349.447L145.009 352.182L131.621 350.391L131.846 348.331L145.311 349.447Z" fill="black"/>
</g>
<path d="M113.447 342.326L114.503 367.275L127.968 366.972L126.965 341.971L113.447 342.326Z" fill="#81B1DE"/>
<path d="M121.114 366.185C121.226 366.185 121.019 360.715 120.647 353.983C120.275 347.25 119.885 341.798 119.781 341.807C119.677 341.815 119.876 347.276 120.249 354.009C120.621 360.741 121.001 366.185 121.114 366.185Z" fill="#202533"/>
<path d="M114.434 365.552L127.899 365.206L127.968 366.971L114.503 367.274L114.434 365.552Z" fill="#202533"/>
<path d="M127.648 358.985C127.558 358.787 127.432 358.608 127.276 358.457C126.901 358.005 126.481 357.593 126.021 357.228C125.343 356.67 124.588 356.213 123.78 355.869C122.369 355.26 120.8 355.121 119.304 355.471C117.809 355.822 116.465 356.644 115.472 357.816C115.094 358.27 114.785 358.778 114.555 359.322C114.452 359.516 114.388 359.727 114.364 359.945C114.752 359.261 115.195 358.61 115.688 357.998C116.968 356.61 118.744 355.783 120.63 355.696C122.507 355.667 124.338 356.277 125.822 357.427C127.016 358.318 127.596 359.028 127.648 358.985Z" fill="#202533"/>
<g opacity="0.3">
<path d="M127.249 349.093L127.362 351.836L113.853 352.078L113.767 350.01L127.249 349.093Z" fill="black"/>
</g>
<path d="M128.531 287.468L128.004 219.189H101.471C101.471 219.189 99.3766 236.134 100.372 242.97C101.367 249.807 108.446 287.564 108.446 287.564C108.446 287.564 110.739 337.704 111.907 350.581L128.471 349.092L128.531 287.468Z" fill="#202533"/>
<path d="M144.791 204.79C150.136 209.825 153.683 216.473 154.89 223.716C156.734 235.606 151.161 283.159 151.161 283.159L146.462 349.093H130.08L130.608 285.608L127.778 238.332L125.935 223.379L144.791 204.79Z" fill="#202533"/>
<path d="M130.236 282.198C130.189 282.067 130.166 281.93 130.166 281.791C130.166 281.471 130.097 281.082 130.054 280.614C129.976 279.515 129.872 278.018 129.742 276.287C129.5 272.618 129.206 267.547 128.946 261.948C128.687 256.349 128.514 251.269 128.453 247.591C128.453 245.748 128.453 244.259 128.453 243.264V242.087C128.448 241.947 128.463 241.808 128.496 241.672C128.536 241.807 128.553 241.947 128.548 242.087C128.548 242.407 128.548 242.797 128.6 243.264C128.6 244.363 128.695 245.86 128.756 247.591C128.92 251.33 129.137 256.366 129.379 261.931C129.621 267.495 129.872 272.54 130.045 276.279C130.114 278.061 130.175 279.533 130.218 280.606C130.218 281.073 130.218 281.471 130.218 281.782C130.249 281.919 130.255 282.06 130.236 282.198Z" fill="#455A64"/>
<path d="M150.261 286.084C149.46 286.081 148.659 286.029 147.864 285.928C144.024 285.661 140.165 286.023 136.441 287.001C135.679 287.248 134.901 287.444 134.113 287.59C134.823 287.212 135.575 286.922 136.355 286.724C140.085 285.562 144.018 285.197 147.899 285.651C148.702 285.693 149.496 285.839 150.261 286.084Z" fill="#455A64"/>
<path d="M124.023 286.69C124.023 286.768 123.227 286.526 121.954 286.335C120.303 286.076 118.621 286.076 116.97 286.335C115.322 286.619 113.728 287.156 112.245 287.928C111.102 288.525 110.453 289.009 110.41 288.949C110.889 288.421 111.457 287.981 112.089 287.651C113.57 286.782 115.198 286.196 116.892 285.92C118.59 285.628 120.328 285.657 122.015 286.006C122.718 286.119 123.397 286.351 124.023 286.69Z" fill="#455A64"/>
<path d="M124.187 287.556C122.666 288.405 121.023 289.016 119.315 289.364C117.631 289.862 115.879 290.095 114.123 290.057C114.123 289.927 116.416 289.624 119.177 288.932C121.937 288.239 124.144 287.426 124.187 287.556Z" fill="#455A64"/>
<path d="M129.37 240.98C129.199 241.234 128.995 241.464 128.764 241.664C128.565 241.88 128.297 242.123 127.986 242.4C127.674 242.677 127.311 243.005 126.887 243.326C125.912 244.115 124.87 244.816 123.771 245.42C122.412 246.194 120.936 246.741 119.401 247.038L118.605 247.228C115.671 247.857 112.636 247.842 109.709 247.185C108.825 246.993 107.957 246.732 107.112 246.406C106.806 246.304 106.515 246.161 106.247 245.982C106.247 245.904 107.58 246.45 109.795 246.848C112.686 247.399 115.657 247.369 118.536 246.761L119.314 246.571C120.796 246.278 122.223 245.758 123.546 245.03C124.638 244.456 125.682 243.796 126.67 243.057C128.392 241.828 129.318 240.92 129.37 240.98Z" fill="#455A64"/>
<path d="M134.96 224.14C134.96 224.14 135.029 224.417 135.133 224.893C135.237 225.369 135.367 226.104 135.531 226.944C135.86 228.753 136.327 231.271 136.881 234.222L136.76 234.075L143.925 236.757L143.674 236.827L147.266 232.171L148.131 231.046L148.088 231.21C147.69 227.688 147.309 224.374 146.98 221.466L147.283 221.613C145.726 222.366 144.072 222.899 142.368 223.197C140.871 223.5 139.546 223.69 138.456 223.828C137.366 223.967 136.5 224.053 135.912 224.097C135.61 224.125 135.305 224.125 135.003 224.097C135.288 224.026 135.577 223.977 135.869 223.95L138.396 223.578C139.477 223.404 140.793 223.179 142.272 222.851C143.931 222.528 145.54 221.99 147.058 221.25L147.318 221.103V221.397C147.664 224.296 148.053 227.61 148.477 231.132V231.228L148.417 231.297L147.551 232.422L143.951 237.069L143.856 237.199L143.7 237.138C141.104 236.134 138.716 235.208 136.604 234.378H136.5V234.274C136.024 231.228 135.635 228.692 135.332 226.849C135.202 225.983 135.107 225.343 135.029 224.824C134.984 224.599 134.961 224.37 134.96 224.14Z" fill="#455A64"/>
<path d="M120.379 226.51C120.397 226.741 120.397 226.972 120.379 227.203C120.379 227.73 120.379 228.405 120.301 229.245C120.215 231.114 120.093 233.676 119.946 236.756V236.86L119.851 236.912L113.093 240.434L112.945 240.512L112.833 240.391L108.748 236.159L107.762 235.147L107.701 235.078V235.026C107.701 231.469 107.762 228.103 107.779 225.212V224.918L108.056 225.03C109.642 225.607 111.298 225.968 112.98 226.104C114.494 226.268 115.818 226.346 116.918 226.398L119.462 226.493C119.751 226.49 120.04 226.507 120.327 226.545C120.041 226.594 119.752 226.617 119.462 226.614C118.873 226.614 118.008 226.614 116.909 226.614C115.81 226.614 114.468 226.545 112.945 226.406C111.221 226.3 109.52 225.954 107.892 225.377L108.168 225.195C108.168 228.12 108.168 231.46 108.168 235.008L108.108 234.853L109.086 235.865L113.17 240.105L112.911 240.062L119.695 236.601L119.592 236.756C119.817 233.728 120.007 231.209 120.137 229.375C120.206 228.509 120.267 227.826 120.31 227.289C120.315 227.028 120.338 226.768 120.379 226.51Z" fill="#455A64"/>
<path d="M128.09 238.15C127.833 237.539 127.662 236.895 127.58 236.238C127.275 234.672 127.076 233.088 126.983 231.495C126.88 229.905 126.88 228.309 126.983 226.718C126.989 226.054 127.085 225.393 127.268 224.754C127.407 224.754 127.173 227.774 127.398 231.469C127.623 235.165 128.22 238.115 128.09 238.15Z" fill="#455A64"/>
<path d="M150.26 242.252C150.057 242.389 149.835 242.497 149.602 242.572C148.99 242.822 148.363 243.033 147.724 243.204C145.61 243.784 143.427 244.075 141.234 244.069C139.042 244.071 136.859 243.78 134.744 243.204C134.106 243.026 133.479 242.813 132.866 242.564C132.63 242.494 132.408 242.385 132.208 242.243C132.208 242.166 133.203 242.512 134.804 242.893C139.022 243.879 143.411 243.879 147.629 242.893C149.256 242.52 150.234 242.174 150.26 242.252Z" fill="#455A64"/>
<path d="M108.938 134.131C108.938 134.131 96.9962 140.656 93.5 142.188L98.2683 165.008L105.78 192.38L100.743 221.249C100.743 221.249 118.449 224.382 127.129 223.257C139.011 221.716 154.155 217.346 154.155 217.346L142.36 182.151L145.38 157.851L140.317 137.367L127.977 135.905L108.938 134.131Z" fill="#81B1DE"/>
<g opacity="0.3">
<path d="M103.331 156.951C104.136 158.552 105.979 159.322 107.71 159.798C109.441 160.274 111.293 160.663 112.651 161.797C115.057 163.891 114.988 167.855 117.212 170.113C117.933 170.844 118.844 171.36 119.843 171.601C120.841 171.843 121.887 171.801 122.863 171.481C124.092 171.057 125.173 170.2 126.463 170.079C127.328 169.992 128.246 170.278 129.146 170.209C131.664 170.036 133.144 167.362 134.147 165.016C135.151 162.671 136.259 160.075 135.999 157.47C135.619 153.567 132.373 150.417 131.871 146.532C131.69 145.086 131.871 143.624 131.742 142.205C131.612 140.786 130.946 139.228 129.63 138.622" fill="black"/>
</g>
<path d="M150.91 131.353L141.677 112.86L149.093 108.101C149.093 108.101 158.379 117.672 160.135 119.532C160.135 119.532 170.814 129.38 168.028 134.131C166.359 136.815 164.293 139.231 161.901 141.297L150.91 131.353Z" fill="#81B1DE"/>
<path d="M93.4998 142.188C93.3354 142.673 68.6459 176.804 67.3219 180.447C67.2527 180.643 67.1834 180.851 67.1142 181.07C66.4174 183.407 66.3366 185.885 66.8794 188.262C67.4222 190.64 68.5703 192.836 70.2123 194.639L90.5748 217.347L99.471 207.058L85.3132 182.109L98.8392 167.181L93.4998 142.188Z" fill="#81B1DE"/>
<path d="M108.973 208.58C108.108 208.632 106.645 209.775 105.979 210.311C105.76 210.49 105.482 210.579 105.2 210.562C104.97 210.547 104.751 210.461 104.572 210.317C104.392 210.174 104.261 209.978 104.196 209.757L103.331 206.789C102.891 206.826 102.467 206.968 102.093 207.203C101.72 207.438 101.408 207.759 101.185 208.139L100.207 209.818L98.4759 208.191L90.5576 217.234C90.5576 217.234 93.673 220.601 95.6547 220.653C97.6365 220.704 106.905 213.063 106.905 213.063L109.371 210.9C109.371 210.9 111.396 208.433 108.973 208.58Z" fill="#FFBE9D"/>
<path d="M134.632 136.692L141.641 137.004L151.619 129.371L165.742 137.16C165.742 137.16 159.382 143.961 153.393 150.928C148.556 156.562 145.112 160.084 145.112 160.084L134.632 136.692Z" fill="#81B1DE"/>
<path d="M141.209 196.819C140.902 197.199 140.567 197.555 140.205 197.884C139.548 198.55 138.544 199.476 137.272 200.584C130.609 206.335 122.995 210.88 114.772 214.015C113.197 214.603 111.907 215.044 111.007 215.313C110.546 215.477 110.071 215.602 109.588 215.685C110.027 215.474 110.481 215.294 110.947 215.148C111.812 214.828 113.101 214.343 114.65 213.712C118.698 212.069 122.615 210.122 126.368 207.888C130.114 205.643 133.686 203.12 137.055 200.341C138.345 199.268 139.374 198.386 140.067 197.745C140.419 197.403 140.801 197.093 141.209 196.819Z" fill="#202533"/>
<path d="M116.693 192.787C116.797 192.848 114.304 196.889 111.137 201.796C107.97 206.702 105.304 210.623 105.2 210.562C105.097 210.501 107.58 206.46 110.756 201.545C113.932 196.629 116.589 192.718 116.693 192.787Z" fill="#202533"/>
<path d="M144.264 158.163C144.203 158.163 144.264 157.159 144.151 155.567C144.039 153.974 143.961 151.724 143.736 149.267C143.511 146.809 143.217 144.594 142.914 143.01C142.611 141.426 142.291 140.483 142.36 140.457C142.79 141.229 143.083 142.069 143.226 142.941C143.688 145.011 144.009 147.11 144.186 149.223C144.411 151.698 144.489 153.94 144.472 155.567C144.51 156.437 144.44 157.309 144.264 158.163Z" fill="#202533"/>
<path d="M161.234 130.081C160.677 129.897 160.133 129.674 159.607 129.414C158.316 128.887 156.942 128.594 155.548 128.549C154.161 128.481 152.783 128.802 151.568 129.475C150.659 130.02 150.209 130.548 150.148 130.496C150.443 129.964 150.873 129.519 151.395 129.207C152.631 128.408 154.088 128.02 155.557 128.099C157.009 128.147 158.434 128.504 159.737 129.146C160.29 129.36 160.798 129.677 161.234 130.081Z" fill="#202533"/>
<path d="M156.761 126.134C156.761 126.307 154.796 126.082 152.884 127.32C150.971 128.557 150.331 130.461 150.184 130.375C150.229 129.953 150.372 129.547 150.599 129.189C151.082 128.286 151.781 127.516 152.633 126.948C153.495 126.39 154.489 126.068 155.514 126.013C155.933 125.951 156.361 125.993 156.761 126.134Z" fill="#202533"/>
<g opacity="0.3">
<path d="M117.471 188.633C117.332 187.828 116.813 186.954 115.991 186.902C115.169 186.85 114.476 187.863 114.113 188.728L105.459 209.212L105.156 210.545C108.618 205.032 112.079 199.736 115.541 194.223C116.675 192.536 117.791 190.623 117.471 188.633Z" fill="black"/>
</g>
<g opacity="0.3">
<path d="M150.184 130.116C151.257 128.549 152.174 126.767 154.035 126.377C155.916 125.99 157.873 126.34 159.504 127.355C159.859 127.571 160.239 127.944 160.11 128.342C160.046 128.485 159.945 128.607 159.817 128.697C159.689 128.787 159.539 128.841 159.383 128.852C157.747 129.259 156.051 128.783 154.381 128.567C153.611 128.474 152.83 128.585 152.116 128.889C151.402 129.192 150.781 129.678 150.313 130.297" fill="black"/>
</g>
<path d="M97.3862 163.537C96.9662 162.783 96.6241 161.989 96.3651 161.166C94.9358 157.252 93.963 153.187 93.466 149.05C93.3256 148.192 93.2734 147.323 93.3103 146.454C93.5332 147.286 93.6923 148.134 93.7862 148.99C94.0458 150.556 94.4439 152.719 95.0064 155.047C95.5689 157.375 96.192 159.504 96.668 161.027C96.975 161.843 97.2152 162.682 97.3862 163.537Z" fill="#202533"/>
<path d="M110.324 141.037L127.848 141.297L126.204 125.46C126.204 125.46 127.502 126.109 127.753 119.619C128.004 113.128 128.618 102.121 128.618 102.121C124.969 100.429 120.933 99.7444 116.93 100.137C112.927 100.53 109.101 101.985 105.85 104.353L104.872 105.072L110.324 141.037Z" fill="#FFBE9D"/>
<path d="M106.713 113.102C106.601 113.05 102.291 111.657 102.309 116.096C102.326 120.535 106.783 119.601 106.791 119.471C106.8 119.341 106.713 113.102 106.713 113.102Z" fill="#FFBE9D"/>
<path d="M127.57 112.739C127.674 112.696 131.663 111.735 131.395 116.2C131.127 120.666 126.739 119.446 126.739 119.324C126.739 119.203 127.57 112.739 127.57 112.739Z" fill="#FFBE9D"/>
<path d="M117.16 94.3493C117.16 94.3493 111.102 94.1243 108.947 95.2147C105.356 97.0493 102.569 102.138 102.517 108.49C102.465 114.842 105.33 123.383 109.968 127.623C114.607 131.864 118.276 132.634 118.276 132.634C118.276 132.634 128.098 127.277 129.197 119.437C130.296 111.596 131.04 104.05 127.977 100.251C124.913 96.4522 119.384 94.4445 117.16 94.3493Z" fill="#202533"/>
<path d="M103.33 112.583C102.976 108.568 102.638 104.414 103.902 100.589C105.165 96.7638 108.453 93.2936 112.486 93.1378C113.774 93.2286 115.067 93.2286 116.354 93.1378C117.435 92.8603 118.484 92.4747 119.487 91.9869C121.253 91.2105 123.238 91.0878 125.086 91.6407C125.999 91.931 126.806 92.484 127.406 93.2305C128.007 93.977 128.374 94.8839 128.461 95.8378C128.366 96.6138 128.399 97.4 128.556 98.1657C128.966 98.86 129.48 99.4874 130.079 100.026C130.82 101.07 131.13 102.36 130.945 103.626C130.76 104.885 130.417 106.115 129.924 107.287L126.618 116.148" fill="#202533"/>
<path d="M113.455 114.833C114.607 114.268 115.879 113.989 117.162 114.02C118.445 114.05 119.701 114.39 120.825 115.01C121.949 115.63 122.906 116.512 123.616 117.581C124.327 118.65 124.768 119.874 124.904 121.151C125.19 123.747 125.19 124.197 126.886 126.222C127.933 127.477 128.946 127.399 130.175 128.463C130.958 129.176 131.49 130.124 131.691 131.164C131.892 132.204 131.752 133.281 131.291 134.235C134.467 134.079 137.444 133.872 138.526 136.831C133.783 135.853 129.006 140.293 124.29 139.298C122.766 139.102 121.305 138.566 120.015 137.731C118.613 136.676 117.851 134.997 117.142 133.404L113.325 124.751C112.46 122.803 111.595 120.778 111.595 118.65C111.595 116.521 112.85 114.262 114.909 113.726" fill="#202533"/>
<path d="M111.543 117.732C111.113 116.414 111.104 114.994 111.517 113.67C111.929 112.346 112.743 111.183 113.845 110.342C115.018 109.588 116.394 109.213 117.787 109.267C119.18 109.321 120.523 109.802 121.633 110.645C122.496 111.271 123.191 112.102 123.654 113.062C124.118 114.023 124.336 115.083 124.29 116.148C124.216 117.158 123.781 118.107 123.064 118.822C122.347 119.537 121.397 119.971 120.387 120.043" fill="#81B1DE"/>
<path d="M121.945 113.431C120.608 112.389 118.941 111.862 117.248 111.946C115.554 112.03 113.948 112.72 112.72 113.89C110.462 116.157 110.228 120.813 110.92 123.955C111.656 127.321 113.716 130.583 113.032 133.958C112.617 136.018 111.206 138.104 112.019 140.016C112.686 141.582 114.538 142.266 115.542 143.633C117.021 145.65 116.286 148.48 115.299 150.773C114.313 153.066 113.084 155.541 113.776 157.947C114.313 159.807 115.879 161.149 117.134 162.629C118.389 164.108 119.393 166.185 118.553 167.933C119.358 168.533 120.325 168.873 121.328 168.909C122.331 168.945 123.32 168.675 124.166 168.135C125.011 167.595 125.672 166.81 126.061 165.885C126.449 164.961 126.547 163.939 126.342 162.957C127.335 163.982 127.925 165.331 128.003 166.757C129.371 166.642 130.686 166.177 131.821 165.405C132.957 164.634 133.873 163.582 134.483 162.352C135.092 161.122 135.373 159.756 135.299 158.385C135.225 157.014 134.799 155.686 134.061 154.529C132.988 152.85 131.257 151.491 130.894 149.535C130.461 147.199 132.148 144.914 131.932 142.552C131.733 140.432 130.063 138.761 128.349 137.498C126.636 136.234 124.723 135.092 123.616 133.275C121.824 130.332 122.655 126.585 123.347 123.21C124.04 119.835 124.377 115.855 121.954 113.406" fill="#202533"/>
<path d="M111.716 115.491C109.319 117.109 109.12 120.545 109.492 123.418C109.864 126.291 110.288 129.519 108.523 131.812C107.329 133.353 105.243 134.244 104.637 136.139C103.893 138.398 105.745 140.665 105.961 143.062C105.991 144.791 105.506 146.49 104.568 147.943C103.641 149.387 102.907 150.946 102.387 152.582C102.137 153.407 102.118 154.285 102.333 155.12C102.549 155.955 102.989 156.714 103.607 157.315C104.498 157.937 105.537 158.31 106.619 158.397C110.449 158.984 114.347 158.97 118.172 158.354C119.314 153.655 120.456 148.904 120.456 144.075C120.456 134.469 115.913 125.322 115.792 115.725" fill="#202533"/>
<path d="M118.441 164.731C118.297 164.6 118.167 164.455 118.051 164.299L116.978 163.009C115.635 161.449 114.379 159.817 113.214 158.12C112.405 156.93 111.778 155.626 111.353 154.251C110.849 152.649 110.882 150.926 111.448 149.345C112.131 147.665 112.95 146.044 113.897 144.499C114.763 142.889 115.628 141.08 115.412 139.15C115.195 137.221 113.949 135.646 113.378 133.811C113.227 133.349 113.14 132.869 113.119 132.383C113.114 131.901 113.19 131.421 113.344 130.964C113.7 130.129 114.211 129.369 114.849 128.723C115.421 128.128 115.937 127.482 116.39 126.793C116.774 126.135 116.988 125.391 117.013 124.629C116.998 123.228 116.74 121.84 116.251 120.527C115.86 119.41 115.613 118.246 115.516 117.066C115.476 116.169 115.66 115.277 116.052 114.47C116.307 113.956 116.681 113.511 117.143 113.172C117.304 113.057 117.482 112.966 117.67 112.903C117.036 113.298 116.531 113.87 116.217 114.548C115.855 115.338 115.7 116.208 115.767 117.074C115.892 118.227 116.157 119.36 116.554 120.449C117.087 121.79 117.38 123.213 117.42 124.655C117.403 125.482 117.18 126.291 116.77 127.009C116.313 127.726 115.785 128.395 115.195 129.008C114.6 129.623 114.122 130.342 113.785 131.128C113.649 131.535 113.581 131.962 113.586 132.392C113.615 132.832 113.697 133.268 113.828 133.69C114.365 135.421 115.689 137.022 115.896 139.124C115.997 140.135 115.869 141.155 115.524 142.11C115.191 143.007 114.786 143.875 114.313 144.706C113.373 146.224 112.56 147.815 111.881 149.466C111.326 150.97 111.281 152.615 111.751 154.148C112.14 155.489 112.723 156.766 113.482 157.938C114.875 160.119 116.243 161.728 117.117 162.888C117.558 163.468 117.904 163.918 118.12 164.229C118.245 164.385 118.352 164.553 118.441 164.731Z" fill="#455A64"/>
<path d="M109.008 131.353C109.447 130.313 109.758 129.223 109.934 128.108C110.085 126.894 110.135 125.67 110.081 124.447C110.081 123.063 109.942 121.522 110.029 119.895C110.073 118.349 110.454 116.831 111.145 115.447C111.742 114.327 112.641 113.397 113.741 112.765C114.499 112.332 115.362 112.116 116.234 112.142C116.465 112.154 116.694 112.192 116.917 112.254C116.997 112.271 117.073 112.3 117.142 112.341C116.854 112.354 116.565 112.354 116.277 112.341C115.462 112.376 114.669 112.621 113.975 113.05C112.95 113.684 112.113 114.58 111.552 115.646C110.91 117.001 110.56 118.475 110.522 119.973C110.436 121.566 110.522 123.089 110.522 124.491C110.557 125.736 110.476 126.982 110.28 128.212C110.14 129.044 109.887 129.854 109.527 130.618C109.397 130.89 109.221 131.139 109.008 131.353Z" fill="#455A64"/>
<path d="M134.475 162.334C134.48 162.148 134.501 161.963 134.535 161.78C134.578 161.253 134.578 160.724 134.535 160.197C134.358 158.259 133.897 156.358 133.168 154.554C132.675 153.455 131.896 152.304 131.316 150.954C130.992 150.253 130.765 149.51 130.641 148.748C130.511 147.939 130.511 147.116 130.641 146.307C130.762 145.442 130.953 144.663 131.056 143.832C131.177 142.984 131.16 142.122 131.004 141.279C130.687 139.501 129.811 137.87 128.504 136.624C127.188 135.343 125.345 134.754 123.986 133.474C122.733 132.219 121.911 130.597 121.641 128.844C121.376 127.298 121.324 125.722 121.485 124.162C121.598 122.7 121.771 121.35 121.857 120.121C121.953 119.02 121.939 117.913 121.814 116.815C121.719 115.993 121.402 115.212 120.897 114.556C120.457 114.014 119.847 113.636 119.166 113.483C119.354 113.474 119.542 113.501 119.72 113.561C120.242 113.718 120.71 114.018 121.07 114.426C121.631 115.087 121.991 115.895 122.108 116.754C122.258 117.87 122.296 118.998 122.221 120.121C122.152 121.367 121.996 122.717 121.901 124.171C121.759 125.698 121.823 127.238 122.091 128.749C122.358 130.411 123.142 131.946 124.332 133.136C125.587 134.33 127.43 134.91 128.858 136.277C130.223 137.595 131.133 139.314 131.454 141.184C131.61 142.07 131.627 142.975 131.506 143.867C131.385 144.732 131.195 145.554 131.074 146.351C130.929 147.118 130.908 147.904 131.013 148.678C131.134 149.405 131.343 150.114 131.636 150.79C132.19 152.123 132.943 153.248 133.445 154.416C134.162 156.256 134.583 158.199 134.691 160.171C134.724 160.705 134.701 161.242 134.622 161.772C134.622 161.953 134.544 162.092 134.527 162.178C134.509 162.265 134.483 162.334 134.475 162.334Z" fill="#455A64"/>
<path d="M131.041 137.903C131.187 137.554 131.311 137.195 131.413 136.83C131.623 135.82 131.563 134.773 131.24 133.793C130.693 132.365 129.627 131.196 128.254 130.522C127.36 130.2 126.553 129.672 125.901 128.981C125.302 128.165 124.805 127.278 124.421 126.342C123.804 124.502 123.563 122.557 123.711 120.622C123.807 119.084 123.622 117.541 123.166 116.07C122.833 115.094 122.233 114.231 121.435 113.577C121.126 113.359 120.805 113.157 120.475 112.972C120.475 112.972 120.578 112.972 120.769 113.041C121.041 113.141 121.3 113.275 121.539 113.439C122.425 114.063 123.101 114.941 123.477 115.957C123.993 117.456 124.219 119.039 124.144 120.622C124.022 122.499 124.263 124.382 124.853 126.169C125.223 127.062 125.693 127.91 126.255 128.696C126.544 129.037 126.886 129.329 127.268 129.561C127.649 129.795 128.055 129.951 128.462 130.158C129.914 130.892 131.025 132.161 131.56 133.698C131.875 134.734 131.89 135.838 131.603 136.882C131.522 137.163 131.403 137.43 131.249 137.678C131.119 137.834 131.05 137.912 131.041 137.903Z" fill="#455A64"/>
<path d="M110.324 114.477C109.688 114.224 109.102 113.861 108.593 113.404C107.277 112.343 106.201 111.016 105.434 109.51C104.668 108.004 104.228 106.352 104.145 104.664C104.072 103.969 104.134 103.267 104.327 102.596C104.405 102.596 104.327 103.392 104.457 104.638C104.79 107.918 106.333 110.957 108.784 113.162C109.692 114.001 110.367 114.408 110.324 114.477Z" fill="#455A64"/>
<path d="M109.519 115.655C108.41 115.337 107.374 114.802 106.473 114.08C105.483 113.486 104.619 112.704 103.929 111.778C104.905 112.355 105.839 113 106.724 113.708C107.698 114.294 108.632 114.944 109.519 115.655Z" fill="#455A64"/>
<path d="M128.47 104.292C128.314 106.089 127.784 107.833 126.913 109.413C126.043 110.993 124.852 112.373 123.416 113.465C124.561 112.126 125.6 110.7 126.523 109.199C127.304 107.619 127.955 105.978 128.47 104.292Z" fill="#455A64"/>
<path d="M129.879 107.737C129.353 110.632 128.093 113.343 126.218 115.612C126.106 115.534 127.144 113.881 128.148 111.718C129.152 109.554 129.749 107.702 129.879 107.737Z" fill="#455A64"/>
<path d="M127.838 96.565C127.516 96.035 127.227 95.4859 126.973 94.9208C126.678 94.3446 126.282 93.8259 125.804 93.3891C125.23 92.866 124.478 92.5813 123.701 92.5929C122.254 92.7147 120.906 93.3794 119.928 94.4535C119.519 94.9154 119.07 95.3411 118.587 95.7256C118.877 95.1707 119.254 94.6653 119.703 94.2285C120.159 93.7151 120.683 93.2667 121.261 92.8958C121.99 92.4256 122.834 92.1651 123.701 92.1429C124.586 92.1303 125.441 92.466 126.081 93.0775C126.584 93.571 126.984 94.1593 127.258 94.8083C127.557 95.3538 127.753 95.9491 127.838 96.565Z" fill="#455A64"/>
<path d="M126.098 164.151C125.949 164.047 125.809 163.928 125.683 163.796C125.423 163.545 125.051 163.182 124.593 162.68C124.033 162.069 123.526 161.412 123.078 160.715C122.473 159.782 122.102 158.716 121.997 157.609C121.962 156.955 122.047 156.301 122.248 155.679C122.471 155.025 122.761 154.395 123.113 153.801C123.814 152.572 124.679 151.283 124.723 149.725C124.718 148.084 124.247 146.478 123.364 145.095C122.498 143.624 121.33 142.248 120.3 140.708C119.243 139.212 118.539 137.496 118.241 135.688C117.997 134.014 117.968 132.316 118.154 130.634C118.474 127.441 119.106 124.637 119.201 122.232C119.36 120.342 119.175 118.439 118.656 116.615C118.249 115.343 117.843 114.703 117.886 114.677C118.003 114.817 118.102 114.971 118.18 115.135C118.438 115.59 118.652 116.068 118.821 116.563C119.415 118.396 119.653 120.326 119.522 122.249C119.461 124.681 118.864 127.519 118.57 130.678C118.398 132.32 118.433 133.977 118.673 135.61C118.969 137.355 119.652 139.011 120.673 140.457C121.685 141.971 122.862 143.347 123.753 144.879C124.669 146.335 125.15 148.022 125.138 149.742C125.077 151.473 124.134 152.788 123.407 153.983C123.06 154.556 122.771 155.162 122.542 155.791C122.343 156.37 122.255 156.98 122.282 157.591C122.365 158.653 122.701 159.679 123.26 160.585C123.683 161.283 124.16 161.945 124.688 162.567C125.121 163.086 125.475 163.433 125.718 163.727C125.859 163.854 125.987 163.996 126.098 164.151Z" fill="#455A64"/>
</svg>
