<svg width="672" height="501" viewBox="0 0 672 501" fill="none" xmlns="http://www.w3.org/2000/svg">
<g clip-path="url(#clip0_1063_18981)">
<path d="M353 518C491.071 518 603 406.071 603 268C603 129.929 491.071 18 353 18C214.929 18 103 129.929 103 268C103 406.071 214.929 518 353 518Z" fill="url(#paint0_linear_1063_18981)"/>
<path d="M290.398 196.213L291.003 178.532L280.17 174.996C279.702 169.031 278.731 163.116 277.267 157.315L286.46 150.592L280.224 133.879L268.854 134.793C266.158 129.448 263.011 124.342 259.446 119.532L265.333 109.704L253.237 96.7824L243.076 101.986C238.504 98.0787 233.622 94.5488 228.48 91.431L230.12 80.15L213.992 72.8221L206.6 81.4946C200.897 79.6697 195.053 78.3205 189.128 77.4609L186.44 66.3951L168.726 65.79L165.124 76.6407C159.145 77.111 153.215 78.0779 147.397 79.5315L140.569 70.375L123.984 76.5197L124.898 87.8948C119.557 90.6374 114.454 93.8216 109.644 97.4143L99.8592 91.5251L86.8896 103.626L92.0909 113.832C88.1874 118.387 84.6802 123.267 81.6077 128.42L70.3316 126.726L62.9664 142.861L71.6756 150.256C69.8369 155.957 68.488 161.805 67.6436 167.735L56.448 170.505L55.8701 188.24L66.7565 191.79C67.2068 197.774 68.1736 203.707 69.6461 209.525L60.4532 216.247L66.7028 232.853L78.073 231.925C80.7588 237.276 83.9068 242.383 87.481 247.186L81.5808 257.028L93.6768 269.949L103.837 264.733C108.394 268.643 113.267 272.169 118.406 275.274L116.713 286.555L132.841 293.883L140.273 285.224C145.979 287.036 151.822 288.385 157.745 289.257L160.433 300.31L178.147 300.915L181.642 290.078C187.625 289.597 193.558 288.626 199.382 287.173L206.102 296.33L222.687 290.131L221.827 278.756C227.161 276.001 232.263 272.818 237.082 269.237L246.853 275.14L259.822 263.038L254.621 252.833C258.529 248.286 262.036 243.409 265.104 238.258L276.38 239.952L283.745 223.817L275.036 216.422C276.902 210.724 278.273 204.876 279.135 198.943L290.398 196.213ZM171.064 253.452C157.205 252.983 143.796 248.413 132.533 240.319C121.27 232.226 112.66 220.972 107.791 207.982C102.922 194.992 102.014 180.849 105.181 167.343C108.348 153.836 115.447 141.573 125.582 132.103C135.717 122.634 148.431 116.385 162.117 114.146C175.802 111.906 189.844 113.778 202.466 119.524C215.088 125.27 225.723 134.632 233.026 146.425C240.329 158.219 243.971 171.914 243.493 185.779C242.855 204.361 234.866 221.928 221.284 234.618C207.702 247.309 189.638 254.083 171.064 253.452Z" fill="#E3F0FF"/>
<path d="M430.08 319.174L416.183 309.574C414.823 304.567 412.949 299.715 410.592 295.093L414.153 281.11L393.993 259.502L379.801 262.111C375.348 259.425 370.633 257.199 365.729 255.469L357.101 240.934L327.533 239.912L317.937 253.815C312.923 255.215 308.064 257.121 303.435 259.502L289.457 255.939L267.873 276.108L270.466 290.28C267.796 294.74 265.598 299.467 263.908 304.384L249.379 313.016L248.371 342.597L262.281 352.211C263.623 357.243 265.493 362.119 267.859 366.759L264.311 380.702L284.471 402.296L298.569 399.714C303.053 402.387 307.8 404.59 312.735 406.289L321.35 420.797L350.918 421.805L360.501 407.916C365.544 406.554 370.435 404.679 375.097 402.323L388.994 405.872L410.592 385.704L407.998 371.532C410.671 367.068 412.869 362.336 414.557 357.414L429.085 348.782L430.08 319.174ZM338.083 364.07C331.519 363.845 325.168 361.678 319.834 357.843C314.501 354.007 310.424 348.676 308.119 342.522C305.815 336.369 305.386 329.67 306.887 323.273C308.387 316.875 311.751 311.067 316.552 306.582C321.352 302.097 327.375 299.137 333.857 298.076C340.339 297.015 346.99 297.902 352.969 300.622C358.948 303.343 363.986 307.777 367.446 313.362C370.907 318.948 372.634 325.434 372.409 332.002C372.104 340.809 368.315 349.135 361.876 355.148C355.436 361.162 346.873 364.371 338.07 364.07H338.083Z" fill="#F6F6F6"/>
<path d="M118.684 397L133.818 392.95L137.867 377.809L131.97 371.91L125.72 384.849L112.748 391.101L118.684 397Z" fill="#F7F7F7"/>
<path d="M117.821 386.895C117.092 386.256 116.502 385.475 116.088 384.599C115.673 383.723 115.442 382.772 115.41 381.803C115.378 380.835 115.545 379.87 115.901 378.969C116.257 378.067 116.794 377.249 117.479 376.563C118.164 375.878 118.982 375.341 119.883 374.985C120.784 374.629 121.748 374.462 122.716 374.494C123.685 374.526 124.636 374.757 125.511 375.172C126.387 375.586 127.168 376.177 127.806 376.906L120.298 365.619L109.959 370.692L107.758 381.31L117.821 386.895Z" fill="#F7F7F7"/>
<path d="M133.15 373.09L122.065 362L106.931 365.933L103 381.073L113.889 392.281L129.023 388.349L133.15 373.09ZM113.024 382.253C112.031 381.264 111.354 380.003 111.079 378.629C110.803 377.255 110.942 375.83 111.476 374.535C112.011 373.24 112.918 372.132 114.082 371.353C115.246 370.574 116.615 370.158 118.016 370.158C119.417 370.158 120.786 370.574 121.951 371.353C123.115 372.132 124.022 373.24 124.556 374.535C125.091 375.83 125.229 377.255 124.954 378.629C124.678 380.003 124.001 381.264 123.009 382.253C121.678 383.564 119.884 384.299 118.016 384.299C116.148 384.299 114.355 383.564 113.024 382.253Z" fill="#F0F0F0"/>
<path d="M563.684 130L578.818 125.95L582.867 110.809L576.97 104.91L570.72 117.849L557.748 124.101L563.684 130Z" fill="#F7F7F7"/>
<path d="M562.821 119.895C562.092 119.256 561.502 118.475 561.088 117.599C560.673 116.723 560.442 115.772 560.41 114.803C560.378 113.835 560.545 112.87 560.901 111.969C561.257 111.067 561.794 110.249 562.479 109.563C563.164 108.878 563.982 108.341 564.883 107.985C565.784 107.629 566.748 107.462 567.716 107.494C568.685 107.526 569.636 107.757 570.511 108.172C571.387 108.586 572.168 109.177 572.806 109.906L565.298 98.6191L554.959 103.692L552.758 114.31L562.821 119.895Z" fill="#F7F7F7"/>
<path d="M578.15 106.09L567.065 95L551.931 98.9326L548 114.073L558.889 125.281L574.023 121.349L578.15 106.09ZM558.024 115.253C557.031 114.264 556.354 113.003 556.079 111.629C555.803 110.255 555.942 108.83 556.476 107.535C557.011 106.24 557.918 105.132 559.082 104.353C560.246 103.574 561.615 103.158 563.016 103.158C564.417 103.158 565.786 103.574 566.951 104.353C568.115 105.132 569.022 106.24 569.556 107.535C570.091 108.83 570.229 110.255 569.954 111.629C569.678 113.003 569.001 114.264 568.009 115.253C566.678 116.564 564.884 117.299 563.016 117.299C561.148 117.299 559.355 116.564 558.024 115.253Z" fill="#F0F0F0"/>
<path d="M498.394 429.195L508.423 426.511L511.106 416.477L507.199 412.567L503.057 421.142L494.46 425.286L498.394 429.195Z" fill="#F7F7F7"/>
<path d="M497.821 422.498C497.338 422.075 496.947 421.557 496.673 420.977C496.398 420.396 496.245 419.766 496.224 419.124C496.202 418.482 496.313 417.843 496.549 417.245C496.785 416.648 497.141 416.105 497.595 415.651C498.049 415.197 498.591 414.841 499.188 414.605C499.785 414.369 500.424 414.259 501.066 414.28C501.707 414.301 502.338 414.454 502.918 414.729C503.498 415.004 504.015 415.395 504.438 415.878L499.463 408.398L492.611 411.76L491.152 418.797L497.821 422.498Z" fill="#F7F7F7"/>
<path d="M507.981 413.349L500.635 406L490.605 408.606L488 418.64L495.216 426.068L505.246 423.461L507.981 413.349ZM494.643 419.422C493.985 418.767 493.536 417.931 493.354 417.02C493.171 416.11 493.263 415.165 493.617 414.307C493.972 413.449 494.573 412.715 495.344 412.198C496.116 411.682 497.023 411.406 497.951 411.406C498.88 411.406 499.787 411.682 500.559 412.198C501.33 412.715 501.931 413.449 502.286 414.307C502.64 415.165 502.732 416.11 502.549 417.02C502.366 417.931 501.918 418.767 501.26 419.422C500.378 420.291 499.189 420.778 497.951 420.778C496.713 420.778 495.525 420.291 494.643 419.422Z" fill="#F0F0F0"/>
<path d="M336 501C479.919 501 596.588 494.185 596.588 485.779C596.588 477.373 479.919 470.559 336 470.559C192.081 470.559 75.4121 477.373 75.4121 485.779C75.4121 494.185 192.081 501 336 501Z" fill="#F5F5F5"/>
<path d="M298.973 335.994C300.841 305.876 297.414 251.112 354.009 258.359C414.664 266.13 397.313 337.097 397.313 337.097L298.973 335.994Z" fill="#263238"/>
<path d="M338.029 317.896C351.672 317.896 362.732 306.832 362.732 293.183C362.732 279.534 351.672 268.47 338.029 268.47C324.386 268.47 313.326 279.534 313.326 293.183C313.326 306.832 324.386 317.896 338.029 317.896Z" fill="white"/>
<path d="M341.282 268.51C329.576 266.507 317.09 275.139 315.84 283.879L362.221 288.141C360.582 278.178 350.555 270.097 341.282 268.51Z" fill="#263238"/>
<path d="M356.939 292.565C356.603 299.019 353.082 304.088 349.077 303.886C345.072 303.684 342.088 298.279 342.357 291.785C342.625 285.291 346.214 280.248 350.219 280.45C354.224 280.652 357.262 286.111 356.939 292.565Z" fill="#263238"/>
<path d="M338.029 319.228C332.877 319.228 327.841 317.699 323.557 314.835C319.273 311.972 315.935 307.901 313.964 303.139C311.993 298.377 311.478 293.137 312.484 288.082C313.49 283.026 315.972 278.383 319.616 274.74C323.26 271.096 327.902 268.615 332.956 267.611C338.009 266.607 343.247 267.125 348.006 269.1C352.765 271.074 356.832 274.416 359.693 278.703C362.553 282.99 364.079 288.029 364.076 293.184C364.069 300.091 361.322 306.713 356.438 311.597C351.555 316.48 344.934 319.224 338.029 319.228ZM338.029 269.815C333.409 269.815 328.893 271.185 325.052 273.753C321.21 276.321 318.216 279.971 316.449 284.241C314.681 288.511 314.218 293.209 315.119 297.743C316.021 302.276 318.245 306.439 321.512 309.708C324.779 312.976 328.941 315.201 333.472 316.103C338.003 317.005 342.7 316.542 346.968 314.773C351.236 313.005 354.885 310.009 357.451 306.166C360.018 302.323 361.388 297.805 361.388 293.184C361.381 286.988 358.917 281.048 354.538 276.667C350.159 272.286 344.222 269.822 338.029 269.815Z" fill="#407BFF"/>
<path opacity="0.3" d="M390.418 335.228H390.257C390.171 335.209 390.089 335.173 390.017 335.121C389.945 335.07 389.884 335.005 389.837 334.93C389.791 334.854 389.76 334.771 389.747 334.683C389.733 334.596 389.738 334.506 389.76 334.421C389.76 334.233 394.087 316 389.639 297.566C389.598 297.388 389.629 297.201 389.726 297.045C389.823 296.89 389.978 296.78 390.156 296.739C390.334 296.698 390.522 296.73 390.677 296.827C390.832 296.924 390.942 297.079 390.983 297.257C395.512 316.081 391.144 334.542 391.104 334.73C391.066 334.88 390.977 335.013 390.851 335.104C390.726 335.195 390.573 335.238 390.418 335.228Z" fill="white"/>
<path opacity="0.3" d="M386.668 287.482C386.537 287.481 386.41 287.443 386.3 287.371C386.191 287.3 386.104 287.198 386.05 287.079C384.376 283.391 382.235 279.934 379.679 276.793C379.565 276.654 379.511 276.475 379.529 276.296C379.546 276.117 379.634 275.953 379.773 275.838C379.912 275.724 380.091 275.67 380.27 275.688C380.449 275.705 380.614 275.794 380.728 275.933C383.353 279.17 385.552 282.731 387.273 286.528C387.311 286.607 387.333 286.693 387.338 286.781C387.342 286.869 387.329 286.957 387.299 287.04C387.269 287.122 387.222 287.198 387.163 287.263C387.103 287.327 387.031 287.379 386.95 287.415C386.862 287.456 386.766 287.479 386.668 287.482Z" fill="white"/>
<path d="M173.013 477.322H172.516C170.734 477.272 169.044 476.516 167.819 475.22C166.594 473.924 165.934 472.194 165.984 470.411C166.034 468.628 166.79 466.938 168.085 465.713C169.381 464.487 171.11 463.827 172.892 463.877H173.013C176.897 463.877 186.238 459.157 205.78 428.34C206.299 427.521 206.988 426.825 207.801 426.298C208.614 425.771 209.531 425.426 210.49 425.287C211.449 425.147 212.426 425.217 213.355 425.491C214.284 425.765 215.143 426.237 215.873 426.874C231.214 440.076 247.952 451.56 265.79 461.12C267.369 461.932 268.563 463.336 269.111 465.026C269.658 466.716 269.515 468.554 268.713 470.139C267.91 471.723 266.513 472.926 264.827 473.483C263.141 474.041 261.303 473.908 259.715 473.114C243.139 464.302 227.473 453.876 212.943 441.987C196.56 466.566 184.41 477.322 173.013 477.322Z" fill="#282E39"/>
<path d="M214.596 425.624H214.019C213.494 425.548 212.99 425.369 212.535 425.099C212.079 424.828 211.682 424.47 211.365 424.045C211.048 423.621 210.818 423.138 210.687 422.624C210.557 422.111 210.529 421.576 210.605 421.052C211.559 414.329 210.376 389.293 201.896 369.797C201.52 368.935 201.456 367.969 201.716 367.066C201.976 366.163 202.544 365.378 203.32 364.849C221.733 352.304 260.951 350.798 262.618 350.744C263.147 350.727 263.675 350.814 264.171 351C264.667 351.186 265.121 351.469 265.508 351.831C265.895 352.193 266.207 352.628 266.426 353.11C266.645 353.593 266.766 354.114 266.784 354.644C266.802 355.173 266.715 355.701 266.528 356.198C266.342 356.694 266.06 357.148 265.698 357.535C265.336 357.922 264.902 358.234 264.419 358.453C263.937 358.672 263.416 358.794 262.886 358.812C262.524 358.812 228.238 360.156 210.632 369.837C218.131 389.253 219.838 413.455 218.588 422.276C218.426 423.216 217.936 424.068 217.205 424.681C216.474 425.294 215.55 425.628 214.596 425.624Z" fill="#282E39"/>
<path d="M221.369 420.393C218.681 414.073 206.585 414.786 199.503 420.204C195.712 423.109 190.578 431.835 190.095 434.995C189.932 435.748 189.956 436.53 190.164 437.272C190.371 438.014 190.756 438.695 191.285 439.255C191.815 439.815 192.472 440.237 193.202 440.486C193.931 440.735 194.71 440.802 195.471 440.682C200.107 440.292 206.464 433.556 206.464 433.556C202.231 437.697 207.701 440.628 215.872 434.632C220.335 431.297 224.367 427.479 221.369 420.393Z" fill="#407BFF"/>
<path d="M452.538 337.769H452.35C452.264 337.746 452.184 337.706 452.114 337.651C452.044 337.596 451.986 337.528 451.943 337.45C451.901 337.372 451.874 337.286 451.865 337.198C451.857 337.109 451.866 337.02 451.893 336.935C453.68 330.697 455.629 326.892 458.196 324.834C457.794 323.388 457.869 321.851 458.411 320.451C459.034 318.815 460.14 317.408 461.583 316.417C461.191 315.991 460.914 315.474 460.775 314.912C460.636 314.35 460.641 313.763 460.79 313.204C461.274 311.522 462.281 310.038 463.666 308.968C463.167 308.41 462.894 307.687 462.9 306.938C462.9 302.904 470.305 296.827 478.705 295.671C478.793 295.655 478.883 295.659 478.97 295.68C479.056 295.701 479.138 295.74 479.208 295.795C479.279 295.849 479.338 295.917 479.381 295.996C479.424 296.074 479.45 296.16 479.458 296.249C479.481 296.423 479.435 296.6 479.329 296.741C479.224 296.881 479.067 296.975 478.894 297.002C470.91 298.091 464.217 303.872 464.244 306.925C464.239 307.376 464.413 307.811 464.728 308.135C466.538 306.914 468.573 306.064 470.714 305.635C472.854 305.206 475.059 305.205 477.2 305.634C481.326 306.427 483.006 307.301 482.818 308.552C482.442 310.905 473.665 311.389 467.779 310.689C466.725 310.597 465.699 310.305 464.755 309.829C463.487 310.731 462.545 312.019 462.067 313.5C461.949 313.889 461.949 314.305 462.066 314.695C462.183 315.085 462.412 315.431 462.725 315.691C465.225 314.414 468.733 313.876 473.37 314.898C479.458 316.243 479.687 316.982 479.834 317.426C479.882 317.58 479.886 317.745 479.846 317.902C479.805 318.058 479.722 318.201 479.606 318.313C478.329 319.658 468.988 319.039 464.298 317.883C463.731 317.754 463.185 317.55 462.671 317.278C461.283 318.122 460.215 319.404 459.634 320.922C459.245 321.904 459.138 322.975 459.325 324.014C459.564 323.867 459.811 323.732 460.064 323.611C462.846 322.266 466.206 322.522 470.359 324.296C473.047 325.466 474.391 326.515 474.526 327.577C474.53 327.849 474.461 328.118 474.326 328.354C474.192 328.591 473.996 328.787 473.759 328.922C471.703 330.266 464.526 330.078 460.79 328.088C459.931 327.621 459.215 326.928 458.72 326.085C456.529 328.088 454.755 331.692 453.143 337.325C453.096 337.45 453.014 337.559 452.906 337.637C452.799 337.716 452.671 337.762 452.538 337.769ZM459.822 325.224C460.199 325.915 460.768 326.48 461.462 326.851C464.499 328.478 470.467 328.841 472.698 327.94C473.155 327.752 473.222 327.604 473.222 327.604C473.222 327.604 473.155 326.838 469.862 325.439C466.099 323.826 463.142 323.597 460.682 324.74C460.383 324.878 460.095 325.04 459.822 325.224ZM464.311 316.39L464.647 316.485C469.024 317.491 473.529 317.826 478.007 317.48C476.414 316.904 474.778 316.454 473.114 316.135C470.219 315.347 467.156 315.436 464.311 316.39ZM466.005 308.834C466.628 309.044 467.273 309.188 467.927 309.264C474.647 310.057 480.547 309.116 481.367 308.283C481.138 308.081 480.238 307.503 476.904 306.857C473.152 306.113 469.257 306.819 466.005 308.834Z" fill="#263238"/>
<path d="M277.576 475.037C278.463 474.741 278.167 473.894 277.172 473.894H258.975C224.326 470.223 200.121 475.144 215.375 476.301C230.63 477.457 214.3 477.215 203.158 481.437C192.017 485.659 286.016 486.707 294.55 481.437C302.399 476.569 265.291 478.963 277.576 475.037Z" fill="#282E39"/>
<path d="M407.863 480.401L249.54 475.144L242.968 321.567L429.932 325.749L407.863 480.401Z" fill="#3891E3"/>
<path d="M298.972 477.456C298.804 477.454 298.642 477.389 298.518 477.275C298.394 477.161 298.317 477.005 298.3 476.838L285.613 322.589C285.605 322.5 285.616 322.412 285.643 322.327C285.67 322.243 285.713 322.165 285.771 322.097C285.828 322.03 285.898 321.974 285.977 321.934C286.056 321.894 286.143 321.869 286.231 321.863C286.408 321.851 286.583 321.91 286.719 322.025C286.854 322.14 286.94 322.304 286.957 322.481L299.711 476.73C299.719 476.819 299.708 476.907 299.681 476.992C299.654 477.076 299.611 477.154 299.553 477.222C299.496 477.289 299.425 477.345 299.346 477.385C299.267 477.425 299.181 477.449 299.093 477.456H298.972Z" fill="#263238"/>
<path d="M407.863 480.401L450.414 473.907L463.814 331.114L429.932 325.749L407.863 480.401Z" fill="#407BFF"/>
<path opacity="0.2" d="M407.863 480.401L450.414 473.907L463.814 331.114L429.932 325.749L407.863 480.401Z" fill="#3891E3"/>
<path d="M263.061 445.536L259.163 354.294C259.067 352.039 259.434 349.789 260.242 347.683C261.05 345.576 262.281 343.657 263.859 342.045C265.438 340.433 267.33 339.163 269.419 338.312C271.508 337.46 273.749 337.047 276.004 337.097L394.356 339.786C396.687 339.839 398.98 340.385 401.084 341.389C403.188 342.393 405.055 343.832 406.562 345.61C408.07 347.389 409.183 349.467 409.829 351.708C410.475 353.949 410.639 356.301 410.31 358.61L397.192 450.565C396.61 454.577 394.571 458.234 391.465 460.838C388.358 463.442 384.402 464.811 380.352 464.683L279.028 461.322C274.866 461.193 270.907 459.494 267.945 456.566C264.984 453.638 263.239 449.698 263.061 445.536Z" fill="#262C36"/>
<path d="M381.695 427.855C381.443 427.86 381.193 427.81 380.961 427.711C380.729 427.611 380.521 427.463 380.351 427.277L368.847 414.678L356.428 426.026C356.084 426.342 355.629 426.507 355.163 426.487C354.696 426.467 354.257 426.262 353.942 425.919L342.437 413.32L330.019 424.668C329.848 424.825 329.648 424.947 329.43 425.026C329.213 425.105 328.981 425.14 328.75 425.128C328.519 425.117 328.292 425.06 328.083 424.96C327.874 424.86 327.686 424.72 327.532 424.547L316.014 411.949L303.609 423.297C303.439 423.457 303.239 423.581 303.02 423.662C302.802 423.743 302.569 423.78 302.336 423.77C302.103 423.76 301.875 423.704 301.664 423.604C301.453 423.504 301.265 423.363 301.109 423.189L289.604 410.59L277.199 421.939C277.028 422.095 276.828 422.216 276.61 422.295C276.392 422.374 276.161 422.409 275.929 422.398C275.698 422.387 275.47 422.331 275.261 422.233C275.051 422.134 274.862 421.996 274.706 421.824C274.55 421.653 274.429 421.453 274.35 421.235C274.271 421.017 274.236 420.785 274.247 420.554C274.258 420.322 274.314 420.095 274.412 419.885C274.51 419.675 274.649 419.486 274.82 419.33L288.529 406.799C288.876 406.483 289.333 406.316 289.801 406.337C290.27 406.357 290.711 406.562 291.029 406.906L302.534 419.505L314.939 408.157C315.287 407.844 315.743 407.68 316.211 407.7C316.678 407.72 317.119 407.923 317.439 408.264L328.943 420.863L341.362 409.515C341.532 409.358 341.732 409.236 341.95 409.157C342.168 409.078 342.399 409.043 342.63 409.055C342.862 409.066 343.089 409.123 343.298 409.223C343.507 409.323 343.694 409.463 343.848 409.636L355.353 422.234L367.771 410.886C367.941 410.728 368.14 410.606 368.357 410.526C368.575 410.446 368.806 410.41 369.037 410.42C369.269 410.43 369.496 410.486 369.705 410.584C369.915 410.683 370.103 410.822 370.258 410.994L383.039 424.883C383.269 425.14 383.419 425.458 383.471 425.799C383.523 426.139 383.475 426.487 383.332 426.801C383.19 427.115 382.959 427.38 382.668 427.565C382.378 427.749 382.04 427.846 381.695 427.841V427.855Z" fill="white"/>
<path d="M169.008 483.655L160.594 479.648L153.095 443.116L157.167 438.639L169.008 483.655Z" fill="#3891E3"/>
<path d="M169.008 483.655L180.176 477.134L170.607 447.042L157.167 438.639L169.008 483.655Z" fill="#407BFF"/>
<path opacity="0.2" d="M169.008 483.655L180.176 477.134L170.607 447.042L157.167 438.639L169.008 483.655Z" fill="#3891E3"/>
<path d="M352.128 490.297H351.2C349.418 490.248 347.728 489.494 346.502 488.199C345.275 486.904 344.614 485.175 344.662 483.392C344.71 481.609 345.464 479.918 346.758 478.692C348.052 477.465 349.781 476.803 351.563 476.851C361.912 477.187 383.819 470.827 396.345 458.672C397.101 457.93 398.023 457.377 399.033 457.059C420.255 450.685 428.144 463.553 428.467 464.104L416.908 470.948C416.949 471.034 416.999 471.115 417.056 471.19C416.935 471.015 413.925 467.156 404.355 469.523C388.644 483.869 364.533 490.297 352.128 490.297Z" fill="#263238"/>
<path d="M351.308 499.238L326.834 497.692L324.912 452.555L357.8 453.778L351.308 499.238Z" fill="#407BFF"/>
<path d="M351.308 499.238L357.033 493.537L360.581 465.395L357.799 453.778L351.308 499.238Z" fill="#407BFF"/>
<path opacity="0.2" d="M351.308 499.238L357.033 493.537L360.581 465.395L357.799 453.778L351.308 499.238Z" fill="black"/>
<path d="M493.126 482.136C492.247 482.142 491.39 481.853 490.694 481.316C476.716 470.693 457.833 451.843 450.589 433.65C450.48 433.383 450.403 433.103 450.36 432.817C446.826 411.801 443.452 367.551 443.304 365.683C443.265 365.153 443.33 364.62 443.496 364.116C443.661 363.611 443.925 363.144 444.271 362.742C444.618 362.339 445.04 362.009 445.514 361.769C445.988 361.53 446.504 361.386 447.034 361.346C447.563 361.307 448.096 361.372 448.6 361.538C449.104 361.704 449.571 361.967 449.974 362.314C450.376 362.66 450.706 363.083 450.946 363.557C451.185 364.031 451.329 364.548 451.368 365.077C451.368 365.521 454.822 410.201 458.263 431.055C465.494 448.737 485.143 466.902 495.599 474.902C496.267 475.415 496.758 476.123 497.003 476.929C497.247 477.735 497.234 478.597 496.964 479.395C496.694 480.192 496.182 480.885 495.498 481.377C494.815 481.869 493.995 482.134 493.153 482.136H493.126Z" fill="#282E39"/>
<path d="M511.768 484.179C508.65 484.179 505.115 482.767 501.258 479.984C500.828 479.673 500.463 479.281 500.185 478.829C499.907 478.377 499.72 477.875 499.636 477.351C499.466 476.294 499.723 475.212 500.35 474.343C500.978 473.475 501.924 472.891 502.981 472.721C504.039 472.551 505.12 472.808 505.988 473.436C509.322 475.856 511.136 476.125 511.768 476.125C512.837 476.125 513.863 476.55 514.619 477.306C515.375 478.063 515.8 479.089 515.8 480.158C515.8 481.228 515.375 482.254 514.619 483.011C513.863 483.767 512.837 484.192 511.768 484.192V484.179Z" fill="#263238"/>
<path d="M502.387 479.863C506.701 467.036 524.388 469.577 530.49 471.473C535.701 472.996 540.699 475.169 545.368 477.94C548.661 480.092 548.715 483.695 544.32 485.752C538.944 488.294 525.289 486.048 525.289 486.048C532.331 489.127 525.289 494.116 512.911 489.221C508.892 487.635 500.868 484.556 502.387 479.863Z" fill="#3891E3"/>
<path d="M459.46 371.209C457.86 382.113 448.842 390.14 441.504 389.064C434.166 387.989 433.87 378.308 435.469 367.363C437.069 356.418 439.972 348.539 447.31 349.615C454.648 350.69 461.059 360.344 459.46 371.209Z" fill="#282E39"/>
<path d="M282.079 327.726C282.687 327.726 283.181 327.232 283.181 326.623C283.181 326.014 282.687 325.521 282.079 325.521C281.47 325.521 280.977 326.014 280.977 326.623C280.977 327.232 281.47 327.726 282.079 327.726Z" fill="#263238"/>
<path d="M293.274 334.569C293.274 334.787 293.209 335.001 293.088 335.182C292.967 335.363 292.795 335.505 292.593 335.588C292.392 335.671 292.17 335.693 291.956 335.651C291.743 335.608 291.546 335.503 291.392 335.349C291.238 335.195 291.133 334.998 291.091 334.784C291.048 334.571 291.07 334.349 291.153 334.147C291.237 333.946 291.378 333.774 291.559 333.653C291.74 333.531 291.953 333.467 292.171 333.467C292.464 333.467 292.744 333.583 292.951 333.79C293.157 333.996 293.274 334.277 293.274 334.569Z" fill="#263238"/>
<path d="M294.497 464.858C294.497 465.076 294.432 465.29 294.31 465.471C294.189 465.653 294.016 465.794 293.814 465.877C293.611 465.96 293.389 465.981 293.175 465.938C292.961 465.894 292.765 465.788 292.611 465.632C292.457 465.477 292.354 465.279 292.313 465.064C292.272 464.849 292.295 464.627 292.381 464.426C292.466 464.225 292.61 464.054 292.793 463.934C292.976 463.815 293.19 463.752 293.408 463.755C293.698 463.759 293.975 463.876 294.179 464.083C294.383 464.289 294.497 464.567 294.497 464.858Z" fill="#263238"/>
<path d="M304.604 472.791C304.604 473.009 304.539 473.222 304.418 473.404C304.297 473.585 304.125 473.726 303.923 473.81C303.722 473.893 303.5 473.915 303.286 473.872C303.073 473.83 302.876 473.725 302.722 473.571C302.568 473.416 302.463 473.22 302.421 473.006C302.378 472.792 302.4 472.571 302.483 472.369C302.567 472.168 302.708 471.995 302.889 471.874C303.07 471.753 303.284 471.688 303.501 471.688C303.794 471.688 304.074 471.805 304.281 472.011C304.487 472.218 304.604 472.499 304.604 472.791Z" fill="#263238"/>
<path d="M110.893 486.022C108.954 485.92 107.062 485.383 105.357 484.453C103.652 483.522 102.177 482.22 101.042 480.644C100.941 480.496 100.902 480.316 100.932 480.14C100.962 479.965 101.059 479.807 101.203 479.702C101.276 479.651 101.359 479.616 101.446 479.597C101.533 479.578 101.622 479.577 101.71 479.593C101.798 479.609 101.881 479.643 101.955 479.691C102.03 479.74 102.094 479.803 102.144 479.877C104.657 483.494 110.208 485.43 112.627 484.287C112.869 484.184 113.085 484.028 113.259 483.83C112.036 483.292 110.965 482.461 110.14 481.41C109.315 480.36 108.761 479.122 108.528 477.806C108.219 476.099 107.977 473.773 109.375 473.477C111.31 473.047 113.837 477.712 114.751 481.249C114.917 481.834 114.976 482.444 114.925 483.05C115.702 483.275 116.516 483.339 117.318 483.239C117.679 483.211 118.03 483.108 118.35 482.937C118.669 482.765 118.949 482.529 119.172 482.244C118.289 481.575 117.556 480.727 117.021 479.757C116.486 478.786 116.162 477.714 116.068 476.61C115.557 472.926 115.947 472.294 116.35 471.971C116.481 471.871 116.636 471.809 116.799 471.79C116.962 471.771 117.127 471.796 117.277 471.864C118.715 472.482 120.449 477.699 120.785 480.644C120.826 480.956 120.826 481.272 120.785 481.585C121.365 481.808 121.979 481.926 122.6 481.934C123.738 481.972 124.864 481.678 125.839 481.087C125.651 480.965 125.471 480.83 125.301 480.684C123.957 479.501 123.339 477.591 123.581 474.862C123.755 472.764 124.239 471.608 125.086 471.245C125.359 471.135 125.658 471.107 125.947 471.165C126.236 471.222 126.502 471.362 126.712 471.568C127.619 472.57 128.297 473.758 128.699 475.049C129.101 476.34 129.216 477.703 129.037 479.044C128.921 479.602 128.687 480.129 128.352 480.59C131.368 480.8 134.396 480.458 137.289 479.581C137.374 479.559 137.462 479.554 137.549 479.567C137.636 479.579 137.719 479.609 137.794 479.654C137.869 479.699 137.935 479.759 137.986 479.829C138.038 479.9 138.075 479.98 138.096 480.065C138.137 480.238 138.11 480.42 138.019 480.573C137.929 480.726 137.783 480.838 137.612 480.886C133.97 481.786 130.045 482.512 127.277 481.719C125.922 482.742 124.269 483.29 122.573 483.279C121.819 483.269 121.073 483.128 120.368 482.862C120.056 483.346 119.636 483.751 119.142 484.047C118.648 484.343 118.093 484.522 117.519 484.57C116.509 484.7 115.483 484.613 114.509 484.314C114.191 484.839 113.723 485.256 113.165 485.511C112.452 485.839 111.678 486.013 110.893 486.022ZM109.737 474.889C109.56 475.781 109.597 476.703 109.845 477.578C110.035 478.655 110.481 479.67 111.145 480.538C111.809 481.406 112.672 482.102 113.662 482.566C113.642 482.243 113.588 481.923 113.501 481.612C112.452 477.82 110.436 475.171 109.737 474.889ZM117.224 473.719C117.233 474.647 117.31 475.572 117.452 476.489C117.602 478.128 118.326 479.661 119.495 480.818C119.164 478.336 118.395 475.932 117.224 473.719ZM125.677 472.549C125.677 472.549 125.167 472.805 124.978 475.05C124.79 477.296 125.18 478.842 126.228 479.729C126.473 479.935 126.744 480.107 127.035 480.24C127.393 479.865 127.643 479.401 127.76 478.896C128 476.779 127.428 474.651 126.161 472.939C125.879 472.603 125.718 472.549 125.677 472.549Z" fill="#263238"/>
<path d="M279.571 390.473C278.44 390.447 277.401 390.241 276.453 389.855C275.506 389.47 274.683 388.939 273.985 388.263C273.3 387.573 272.773 386.78 272.403 385.882C272.033 384.984 271.86 384.004 271.885 382.94C271.91 381.876 272.127 380.905 272.538 380.025C272.949 379.145 273.513 378.384 274.228 377.74C274.957 377.083 275.804 376.584 276.768 376.243C277.733 375.902 278.781 375.744 279.912 375.77C281.056 375.797 282.095 376.002 283.029 376.388C283.977 376.773 284.793 377.311 285.478 378C286.162 378.676 286.69 379.463 287.06 380.361C287.443 381.259 287.623 382.24 287.598 383.303C287.573 384.367 287.349 385.345 286.924 386.238C286.513 387.118 285.95 387.879 285.234 388.523C284.519 389.166 283.679 389.659 282.714 390C281.763 390.342 280.716 390.5 279.571 390.473ZM279.648 387.161C280.187 387.173 280.687 387.091 281.149 386.913C281.625 386.735 282.035 386.475 282.38 386.133C282.738 385.778 283.017 385.353 283.217 384.859C283.431 384.366 283.545 383.816 283.559 383.21C283.573 382.591 283.485 382.036 283.294 381.547C283.117 381.044 282.858 380.614 282.516 380.256C282.187 379.884 281.79 379.599 281.323 379.4C280.869 379.201 280.373 379.095 279.835 379.082C279.296 379.07 278.789 379.152 278.314 379.33C277.851 379.508 277.441 379.775 277.083 380.13C276.738 380.472 276.459 380.89 276.245 381.384C276.046 381.864 275.939 382.414 275.924 383.033C275.91 383.639 275.992 384.193 276.169 384.696C276.359 385.199 276.618 385.636 276.947 386.007C277.289 386.365 277.686 386.644 278.14 386.843C278.607 387.043 279.109 387.148 279.648 387.161ZM298.149 387.448L297.26 388.316L297.534 376.461L301.472 376.552L301.198 388.407L300.31 387.498L305.783 387.624L304.854 388.492L305.128 376.636L309.066 376.728L308.739 390.865L289.573 390.422L289.9 376.284L293.838 376.375L293.564 388.231L292.716 387.322L298.149 387.448ZM311.761 390.935L312.088 376.797L316.027 376.889L315.835 385.189L321.863 377.024L325.62 377.111L325.293 391.248L321.355 391.157L321.546 382.876L315.538 391.023L311.761 390.935ZM328.329 391.318L328.656 377.181L340.471 377.454L340.399 380.544L332.523 380.362L332.47 382.644L336.125 382.729C337.849 382.769 339.153 383.163 340.039 383.911C340.937 384.659 341.371 385.72 341.339 387.093C341.306 388.507 340.769 389.606 339.727 390.39C338.685 391.161 337.242 391.525 335.398 391.482L328.329 391.318ZM332.333 388.542L335.201 388.608C335.861 388.623 336.369 388.5 336.725 388.239C337.095 387.978 337.286 387.599 337.297 387.101C337.32 386.104 336.645 385.59 335.272 385.558L332.404 385.492L332.333 388.542ZM352.226 391.871L348.402 385.054L351.658 383.23L356.729 391.976L352.226 391.871ZM343.218 391.663L343.545 377.525L347.524 377.617L347.197 391.755L343.218 391.663ZM346.171 386.316L346.245 383.084L351.375 383.203L351.301 386.434L346.171 386.316ZM351.996 385.218L348.309 384.728L352.815 377.74L357.016 377.837L351.996 385.218ZM356.263 391.965L362.831 377.972L366.769 378.063L372.703 392.345L368.543 392.249L363.937 379.957L365.512 379.994L360.343 392.059L356.263 391.965ZM359.74 389.297L360.838 386.372L367.745 386.532L368.707 389.505L359.74 389.297ZM374.443 387.233L373.903 378.228L378.468 378.333L377.492 387.303L374.443 387.233ZM375.854 392.6C375.181 392.584 374.634 392.363 374.212 391.936C373.791 391.508 373.587 391.005 373.601 390.426C373.614 389.834 373.841 389.347 374.281 388.967C374.721 388.573 375.278 388.383 375.951 388.399C376.624 388.415 377.165 388.629 377.573 389.043C377.995 389.443 378.199 389.94 378.185 390.532C378.172 391.111 377.945 391.604 377.504 392.012C377.077 392.419 376.527 392.616 375.854 392.6ZM380.517 387.373L379.978 378.368L384.542 378.474L383.567 387.444L380.517 387.373ZM381.929 392.741C381.256 392.725 380.708 392.503 380.287 392.076C379.866 391.649 379.662 391.146 379.675 390.567C379.689 389.974 379.916 389.488 380.356 389.107C380.796 388.713 381.353 388.524 382.026 388.54C382.699 388.555 383.24 388.77 383.648 389.183C384.07 389.584 384.274 390.08 384.26 390.673C384.247 391.252 384.02 391.745 383.579 392.152C383.152 392.56 382.602 392.756 381.929 392.741ZM386.592 387.514L386.053 378.509L390.617 378.614L389.642 387.584L386.592 387.514ZM388.004 392.881C387.33 392.866 386.783 392.644 386.362 392.217C385.941 391.789 385.737 391.286 385.75 390.707C385.764 390.115 385.991 389.628 386.431 389.248C386.871 388.854 387.428 388.665 388.101 388.68C388.774 388.696 389.315 388.91 389.723 389.324C390.145 389.724 390.349 390.221 390.335 390.813C390.321 391.392 390.095 391.885 389.654 392.293C389.227 392.701 388.677 392.897 388.004 392.881Z" fill="white"/>
<path d="M519 163.476L508.668 156.382C507.652 152.694 506.267 149.118 504.536 145.706L507.153 135.375L492.276 119.43L481.944 121.358C478.674 119.393 475.213 117.766 471.613 116.502L465.242 105.758L443.442 105L436.348 115.332C432.661 116.336 429.084 117.709 425.672 119.43L415.34 116.812L399.395 131.69L401.324 142.021C399.353 145.288 397.726 148.751 396.468 152.353L385.758 158.724L385 180.524L395.332 187.618C396.333 191.333 397.718 194.934 399.464 198.363L396.847 208.694L411.724 224.639L422.056 222.711C425.32 224.686 428.783 226.313 432.387 227.566L438.724 238.277L460.558 239L467.618 228.668C471.336 227.643 474.946 226.259 478.397 224.536L488.729 227.153L504.674 212.241L502.779 201.91C504.745 198.64 506.372 195.178 507.635 191.578L518.346 185.207L519 163.476ZM451.053 196.606C446.206 196.44 441.517 194.84 437.579 192.009C433.642 189.177 430.632 185.242 428.931 180.7C427.23 176.158 426.915 171.214 428.024 166.493C429.133 161.771 431.617 157.485 435.163 154.176C438.708 150.866 443.155 148.683 447.941 147.901C452.728 147.119 457.639 147.774 462.053 149.784C466.467 151.793 470.186 155.066 472.74 159.189C475.293 163.312 476.567 168.1 476.4 172.947C476.166 179.442 473.367 185.58 468.616 190.015C463.865 194.45 457.549 196.82 451.053 196.606Z" fill="#E3F0FF"/>
<path d="M379.954 123.983L380 122.634L379.169 122.363C379.134 121.904 379.06 121.449 378.948 121.003L379.661 120.485L379.173 119.225L378.302 119.297C378.099 118.888 377.86 118.498 377.589 118.13L378.049 117.366L377.104 116.37L376.327 116.766C375.979 116.468 375.606 116.199 375.214 115.963L375.339 115.099L374.105 114.539L373.541 115.199C373.105 115.059 372.657 114.955 372.204 114.889L371.986 114.046L370.631 114L370.363 114.832C369.906 114.867 369.453 114.941 369.008 115.053L368.484 114.339L367.214 114.814L367.286 115.685C366.878 115.891 366.488 116.13 366.119 116.399L365.37 115.949L364.379 116.873L364.778 117.655C364.478 118.002 364.21 118.374 363.976 118.769L363.113 118.64L362.549 119.875L363.216 120.439C363.072 120.875 362.967 121.323 362.902 121.778L362.053 121.992L362 123.369L362.831 123.641C362.866 124.098 362.94 124.552 363.052 124.997L362.339 125.518L362.817 126.789L363.687 126.717C363.89 127.127 364.129 127.517 364.4 127.885L363.947 128.638L364.875 129.626L365.652 129.227C366 129.526 366.372 129.796 366.765 130.033L366.636 130.897L367.87 131.457L368.437 130.794C368.874 130.937 369.323 131.042 369.778 131.108L369.989 131.954L371.341 132L371.608 131.172C372.066 131.135 372.521 131.061 372.967 130.951L373.484 131.664L374.754 131.19L374.686 130.319C375.094 130.114 375.484 129.875 375.852 129.605L376.601 130.058L377.593 129.134L377.197 128.352C377.515 127.998 377.8 127.616 378.049 127.21L378.912 127.338L379.476 126.104L378.812 125.54C378.955 125.102 379.058 124.653 379.123 124.198L379.954 123.983ZM370.823 128.366C369.767 128.328 368.746 127.977 367.889 127.358C367.031 126.739 366.377 125.88 366.007 124.889C365.637 123.898 365.569 122.819 365.811 121.789C366.054 120.76 366.595 119.825 367.368 119.103C368.14 118.381 369.109 117.904 370.152 117.733C371.196 117.561 372.266 117.703 373.229 118.14C374.191 118.577 375.003 119.29 375.561 120.188C376.12 121.086 376.4 122.13 376.366 123.187C376.316 124.609 375.704 125.953 374.665 126.924C373.626 127.895 372.244 128.414 370.823 128.366Z" fill="#D2D2D2"/>
<path d="M374.937 103C374.772 103 374.613 102.934 374.497 102.817L371.944 100.178C370.642 100.056 369.354 99.8147 368.096 99.4573L364.101 101.229C364.013 101.277 363.914 101.302 363.814 101.302C363.714 101.302 363.615 101.277 363.527 101.229L356.832 96.7941C356.747 96.7364 356.677 96.6579 356.63 96.5661C356.583 96.4742 356.56 96.372 356.564 96.2688V91.9198C355.747 90.8978 355.027 89.8017 354.414 88.6458L350.981 87.3143C350.886 87.2791 350.801 87.2203 350.735 87.1433C350.668 87.0664 350.623 86.9739 350.602 86.8745L349.014 79.0072C348.992 78.9067 348.996 78.8022 349.026 78.7038C349.056 78.6053 349.111 78.5163 349.185 78.4452L351.824 75.892C351.949 74.5913 352.186 73.3038 352.532 72.0439L350.773 68.0491C350.725 67.9589 350.7 67.8582 350.7 67.7559C350.7 67.6537 350.725 67.553 350.773 67.4628L355.208 60.7804C355.264 60.6927 355.342 60.6208 355.434 60.5716C355.526 60.5224 355.629 60.4976 355.733 60.4995L360.082 60.5728C361.104 59.7518 362.2 59.0279 363.356 58.4105L364.687 54.9899C364.722 54.8947 364.781 54.8099 364.858 54.7437C364.935 54.6774 365.028 54.6318 365.127 54.6112L372.994 53.0109C373.095 52.992 373.198 52.9977 373.296 53.0275C373.394 53.0573 373.483 53.1103 373.556 53.1819L376.109 55.8206C377.415 55.9438 378.707 56.1851 379.97 56.5414L383.952 54.7822C384.042 54.7341 384.143 54.7089 384.245 54.7089C384.348 54.7089 384.448 54.7341 384.538 54.7822L391.221 59.2168C391.307 59.2719 391.377 59.3478 391.427 59.4375C391.476 59.5271 391.501 59.6276 391.502 59.7298L391.428 64.0911C392.246 65.1106 392.97 66.2023 393.591 67.3528L397.011 68.6844C397.107 68.7216 397.192 68.7826 397.259 68.8617C397.325 68.9407 397.37 69.0352 397.39 69.1364L398.99 77.0037C399.008 77.1042 399.002 77.2075 398.972 77.3052C398.942 77.4028 398.89 77.4921 398.819 77.5656L396.168 80.1189C396.046 81.4199 395.809 82.7076 395.46 83.967L397.219 87.9617C397.267 88.0498 397.292 88.1485 397.292 88.2488C397.292 88.3491 397.267 88.4479 397.219 88.5359L392.845 95.2304C392.788 95.3134 392.711 95.3812 392.622 95.4281C392.533 95.4749 392.433 95.4993 392.332 95.4992L387.971 95.4381C386.948 96.2482 385.857 96.9676 384.709 97.5882L383.378 101.021C383.34 101.117 383.278 101.201 383.2 101.267C383.121 101.333 383.027 101.379 382.926 101.4L375.059 102.988L374.937 103ZM368.059 98.199H368.23C369.549 98.5833 370.904 98.8329 372.274 98.9442C372.422 98.9556 372.561 99.0208 372.664 99.1274L375.108 101.693L382.315 100.227L383.61 96.8918C383.667 96.7544 383.771 96.6417 383.903 96.5742C385.121 95.9388 386.271 95.1816 387.336 94.3142C387.389 94.2629 387.452 94.2242 387.522 94.2009C387.592 94.1776 387.666 94.1704 387.739 94.1798L391.978 94.2409L396.034 88.1328L394.324 84.2357C394.274 84.1017 394.274 83.9544 394.324 83.8204C394.703 82.5001 394.953 81.1458 395.069 79.7768C395.086 79.6301 395.15 79.493 395.252 79.3859L397.817 76.9426L396.364 69.735L393.029 68.4401C392.888 68.384 392.771 68.2802 392.699 68.1469C392.068 66.9266 391.31 65.776 390.439 64.7141C390.353 64.6015 390.306 64.4645 390.304 64.3232V60.0719L384.196 56.0161L380.324 57.7264C380.185 57.7696 380.036 57.7696 379.896 57.7264C378.573 57.3399 377.214 57.0862 375.841 56.9689C375.692 56.9575 375.553 56.8923 375.45 56.7857L373.006 54.2325L365.799 55.6862L364.516 59.0213C364.465 59.1579 364.365 59.2709 364.235 59.3389C363.013 59.977 361.858 60.7384 360.79 61.6111C360.681 61.7019 360.542 61.7497 360.399 61.7455H356.16L352.093 67.8537L353.803 71.7385C353.842 71.8184 353.862 71.9061 353.862 71.995C353.862 72.0839 353.842 72.1716 353.803 72.2516C353.442 73.5455 353.205 74.8708 353.094 76.2096C353.085 76.3548 353.019 76.4906 352.911 76.5883L350.346 79.0316L351.812 86.2392L355.134 87.5341C355.282 87.5908 355.403 87.6994 355.476 87.8396C356.103 89.0556 356.857 90.2022 357.724 91.2601C357.817 91.3686 357.865 91.5084 357.859 91.6511V95.8901L363.967 99.9581L367.851 98.2479C367.917 98.2204 367.988 98.2039 368.059 98.199ZM374.057 94.2531C371.117 94.2505 368.232 93.4511 365.71 91.94C363.187 90.4289 361.121 88.2626 359.732 85.6712C358.342 83.0799 357.681 80.1604 357.817 77.2231C357.954 74.2859 358.885 71.4406 360.509 68.9898C362.063 66.6386 364.201 64.7309 366.713 63.4534C369.225 62.1759 372.026 61.5723 374.841 61.7016C377.657 61.8309 380.39 62.6887 382.775 64.1911C385.159 65.6935 387.113 67.7891 388.445 70.2729C389.777 72.7566 390.442 75.5436 390.374 78.3611C390.306 81.1787 389.508 83.9304 388.058 86.3471C386.608 88.7638 384.555 90.7629 382.101 92.1486C379.647 93.5344 376.875 94.2596 374.057 94.2531ZM361.536 69.6617C359.893 72.1437 359.023 75.0569 359.036 78.0332C359.049 81.0094 359.944 83.915 361.608 86.3827C363.272 88.8503 365.63 90.7692 368.385 91.8967C371.139 93.0242 374.166 93.3097 377.083 92.7171C379.999 92.1245 382.675 90.6805 384.771 88.5676C386.867 86.4546 388.289 83.7676 388.859 80.8463C389.428 77.9249 389.118 74.9004 387.969 72.1551C386.819 69.4097 384.881 67.0669 382.401 65.4226C380.756 64.3207 378.908 63.5558 376.966 63.1724C375.023 62.7889 373.024 62.7945 371.084 63.1887C369.143 63.5829 367.3 64.358 365.661 65.4691C364.023 66.5801 362.62 68.0052 361.536 69.6617Z" fill="white"/>
<path d="M347.905 115.521L348 112.748L346.292 112.19C346.22 111.247 346.068 110.312 345.837 109.395L347.304 108.331L346.299 105.741L344.51 105.888C344.091 105.048 343.601 104.245 343.044 103.489L343.99 101.919L342.047 99.8717L340.449 100.686C339.734 100.073 338.969 99.521 338.162 99.0353L338.418 97.2598L335.882 96.1079L334.723 97.4652C333.826 97.1767 332.907 96.9632 331.974 96.8269L331.527 95.0954L328.741 95L328.191 96.7095C327.252 96.7812 326.319 96.9333 325.406 97.1644L324.328 95.697L321.718 96.6728L321.865 98.463C321.027 98.8869 320.226 99.3776 319.467 99.9304L317.928 99.0059L315.89 100.906L316.711 102.513C316.094 103.226 315.542 103.992 315.061 104.802L313.287 104.538L312.129 107.077L313.5 108.236C313.203 109.132 312.987 110.053 312.855 110.987L311.11 111.427L311 114.259L312.708 114.817C312.78 115.758 312.932 116.69 313.163 117.605L311.696 118.676L312.679 121.288L314.468 121.141C314.886 121.982 315.376 122.785 315.934 123.541L315.003 125.089L316.909 127.121L318.507 126.299C319.222 126.915 319.987 127.469 320.794 127.957L320.53 129.733L323.067 130.885L324.233 129.52C325.131 129.815 326.053 130.031 326.989 130.166L327.422 131.905L330.2 132L330.75 130.298C331.692 130.223 332.626 130.07 333.543 129.843L334.606 131.31L337.216 130.335L337.077 128.544C337.915 128.123 338.717 127.632 339.474 127.077L341.013 128.009L343.052 126.108L342.238 124.502C342.891 123.773 343.478 122.988 343.99 122.154L345.764 122.418L346.922 119.879L345.559 118.72C345.851 117.821 346.065 116.898 346.197 115.962L347.905 115.521ZM329.137 124.531C326.966 124.452 324.867 123.73 323.104 122.458C321.342 121.186 319.996 119.419 319.237 117.382C318.477 115.345 318.337 113.128 318.835 111.011C319.332 108.895 320.446 106.973 322.034 105.489C323.622 104.005 325.614 103.025 327.758 102.673C329.902 102.321 332.102 102.612 334.081 103.51C336.06 104.409 337.728 105.874 338.876 107.72C340.024 109.566 340.599 111.712 340.53 113.885C340.426 116.808 339.169 119.57 337.033 121.566C334.897 123.562 332.058 124.628 329.137 124.531Z" fill="#F6F6F6"/>
</g>
<defs>
<linearGradient id="paint0_linear_1063_18981" x1="351.073" y1="-63.4061" x2="356.194" y2="814.556" gradientUnits="userSpaceOnUse">
<stop stop-color="white" stop-opacity="0"/>
<stop offset="1" stop-color="#9DB3FF" stop-opacity="0.52"/>
</linearGradient>
<clipPath id="clip0_1063_18981">
<rect width="672" height="501" fill="white"/>
</clipPath>
</defs>
</svg>
