<?xml version="1.0" standalone="no"?>
<!DOCTYPE svg PUBLIC "-//W3C//DTD SVG 20010904//EN"
 "http://www.w3.org/TR/2001/REC-SVG-20010904/DTD/svg10.dtd">
<svg version="1.0" xmlns="http://www.w3.org/2000/svg"
 width="700.000000pt" height="700.000000pt" viewBox="0 0 700.000000 700.000000"
 preserveAspectRatio="xMidYMid meet">
<metadata>
Created by potrace 1.14, written by Peter Selinger 2001-2017
</metadata>
<g transform="translate(0.000000,700.000000) scale(0.100000,-0.100000)"
fill="#000000" stroke="none">
<path d="M2575 5380 l-670 -5 -56 -26 c-193 -91 -274 -310 -185 -504 41 -90
121 -160 224 -194 60 -21 77 -21 906 -21 906 0 897 0 1056 -52 323 -106 554
-352 659 -702 15 -50 28 -93 28 -96 1 -3 4 -27 8 -55 3 -27 8 -66 11 -85 7
-49 6 -236 -1 -290 -12 -91 -15 -111 -26 -157 -71 -318 -291 -601 -562 -722
-63 -28 -178 -66 -232 -75 -16 -3 -41 -8 -55 -12 -14 -3 -104 -8 -200 -10
-332 -8 -331 -8 -391 -36 -308 -141 -291 -576 27 -689 53 -19 81 -21 259 -21
250 0 359 7 492 33 292 56 537 160 775 329 81 57 265 229 323 300 150 186 266
407 333 635 31 105 42 149 48 197 3 24 7 49 10 57 18 56 26 451 12 582 -38
334 -182 684 -385 939 -238 298 -590 520 -978 619 -79 19 -251 52 -263 49 -4
-1 -36 2 -72 6 -90 11 -316 12 -1095 6z"/>
<path d="M2237 3869 c-290 -47 -501 -229 -583 -499 -25 -86 -27 -119 -28 -760
-1 -775 -4 -755 118 -875 48 -47 76 -65 128 -83 205 -72 422 34 490 240 7 22
12 204 13 544 3 487 4 513 23 555 27 61 84 116 148 146 54 24 54 24 431 27
329 2 385 5 431 20 124 42 223 158 238 281 10 73 10 70 0 124 -20 110 -95 206
-202 257 l-59 29 -550 1 c-302 1 -572 -2 -598 -7z"/>
</g>
</svg>
